<svg xmlns="http://www.w3.org/2000/svg" xmlns:xlink="http://www.w3.org/1999/xlink" width="500" zoomAndPan="magnify" viewBox="0 0 375 374.999991" height="500" preserveAspectRatio="xMidYMid meet" version="1.0"><defs><clipPath id="ea5477ffaf"><path d="M 30 38 L 330 38 L 330 329.25 L 30 329.25 Z M 30 38 " clip-rule="nonzero"/></clipPath></defs><path fill="#fae280" d="M 323.222656 226.796875 C 322.691406 247.585938 307.605469 271.640625 282.835938 291.242188 C 257.65625 311.203125 226.59375 323.082031 199.6875 323.082031 C 144.511719 323.082031 68.132812 277.523438 46.75 212.183594 C 26.734375 151.003906 33.683594 75.566406 94.324219 44.796875 C 94.859375 44.5 95.394531 44.382812 95.929688 44.382812 C 96.878906 44.382812 97.710938 44.796875 98.246094 45.273438 C 98.660156 45.628906 99.964844 46.996094 99.195312 49.015625 C 86.542969 84.476562 85.476562 130.332031 107.867188 149.578125 C 130.671875 169.121094 195.828125 200.777344 198.617188 202.144531 C 198.855469 202.265625 199.152344 202.324219 199.390625 202.382812 L 284.796875 211.886719 C 284.914062 211.886719 284.976562 211.886719 285.09375 211.886719 L 320.195312 211.886719 Z M 323.222656 226.796875 " fill-opacity="1" fill-rule="nonzero"/><path fill="#8f7a45" d="M 58.6875 105.917969 C 54.117188 105.265625 51.324219 112.867188 50.3125 119.582031 C 49.304688 126.292969 49.71875 134.429688 54.292969 135.144531 C 54.472656 135.203125 54.648438 135.203125 54.886719 135.203125 C 59.105469 135.203125 61.71875 127.957031 62.726562 121.480469 C 63.679688 114.710938 63.261719 106.570312 58.6875 105.917969 Z M 57.796875 120.707031 C 57.144531 124.984375 55.957031 127.957031 55.125 129.382812 C 54.710938 127.71875 54.472656 124.570312 55.125 120.292969 C 55.777344 116.015625 56.964844 113.046875 57.796875 111.621094 C 58.035156 112.511719 58.214844 113.9375 58.214844 115.71875 C 58.214844 117.144531 58.09375 118.808594 57.796875 120.707031 Z M 57.796875 120.707031 " fill-opacity="1" fill-rule="nonzero"/><path fill="#d6bc5d" d="M 58.214844 115.71875 C 58.214844 117.144531 58.09375 118.867188 57.796875 120.769531 C 57.144531 125.046875 55.957031 128.015625 55.125 129.441406 C 54.710938 127.777344 54.472656 124.628906 55.125 120.351562 C 55.777344 116.074219 56.964844 113.105469 57.796875 111.679688 C 58.035156 112.511719 58.214844 113.9375 58.214844 115.71875 Z M 58.214844 115.71875 " fill-opacity="1" fill-rule="nonzero"/><path fill="#8f7a45" d="M 70.269531 209.214844 C 68.429688 202.679688 64.6875 195.433594 60.234375 196.679688 C 55.777344 197.929688 56.371094 206.007812 58.214844 212.597656 C 59.9375 218.65625 63.203125 225.25 67.242188 225.25 C 67.597656 225.25 67.894531 225.191406 68.25 225.132812 C 70.746094 224.417969 71.636719 221.570312 71.636719 218.0625 C 71.636719 215.332031 71.101562 212.125 70.269531 209.214844 Z M 66.707031 219.609375 C 65.636719 218.242188 64.152344 215.449219 62.964844 211.292969 C 61.777344 207.132812 61.660156 203.925781 61.835938 202.265625 C 62.371094 202.917969 63.023438 203.988281 63.679688 205.351562 C 64.332031 206.71875 65.042969 208.5 65.578125 210.578125 C 66.707031 214.679688 66.886719 217.886719 66.707031 219.609375 Z M 66.707031 219.609375 " fill-opacity="1" fill-rule="nonzero"/><path fill="#d6bc5d" d="M 66.707031 219.609375 C 65.636719 218.242188 64.152344 215.449219 62.964844 211.292969 C 61.777344 207.132812 61.660156 203.925781 61.835938 202.265625 C 62.371094 202.917969 63.023438 203.988281 63.679688 205.351562 C 64.332031 206.71875 65.042969 208.5 65.578125 210.578125 C 66.707031 214.679688 66.886719 217.886719 66.707031 219.609375 Z M 66.707031 219.609375 " fill-opacity="1" fill-rule="nonzero"/><path fill="#8f7a45" d="M 107.6875 247.050781 C 107.273438 244.972656 106.203125 242.597656 104.71875 240.398438 C 103.234375 238.199219 101.390625 236.359375 99.550781 235.230469 C 96.285156 233.210938 94.144531 234.042969 93.195312 234.695312 C 92.246094 235.347656 90.703125 237.070312 91.414062 240.8125 C 91.828125 242.894531 92.898438 245.269531 94.382812 247.464844 C 97.234375 251.625 100.621094 253.941406 103.410156 253.941406 C 104.300781 253.941406 105.132812 253.703125 105.90625 253.167969 C 106.855469 252.515625 108.402344 250.851562 107.6875 247.050781 Z M 98.421875 244.734375 C 96.640625 242.121094 96.105469 239.921875 96.105469 238.914062 C 96.582031 239.089844 97.234375 239.507812 98.066406 240.21875 C 98.898438 240.933594 99.789062 241.882812 100.679688 243.191406 C 102.460938 245.804688 102.996094 248 102.996094 249.011719 C 102.046875 248.59375 100.203125 247.289062 98.421875 244.734375 Z M 98.421875 244.734375 " fill-opacity="1" fill-rule="nonzero"/><path fill="#d6bc5d" d="M 102.996094 248.953125 C 102.105469 248.59375 100.203125 247.289062 98.421875 244.675781 C 96.640625 242.0625 96.105469 239.863281 96.105469 238.855469 C 96.582031 239.03125 97.234375 239.449219 98.066406 240.160156 C 98.898438 240.875 99.789062 241.824219 100.679688 243.128906 C 102.460938 245.804688 102.996094 248 102.996094 248.953125 Z M 102.996094 248.953125 " fill-opacity="1" fill-rule="nonzero"/><path fill="#8f7a45" d="M 175.632812 294.332031 C 172.367188 292.964844 169.039062 292.3125 166.25 292.371094 C 161.496094 292.492188 159.953125 294.6875 159.417969 295.996094 C 158.882812 297.300781 158.46875 299.976562 161.734375 303.363281 C 163.695312 305.382812 166.546875 307.222656 169.8125 308.527344 C 172.839844 309.777344 176.050781 310.488281 178.898438 310.488281 C 182.285156 310.488281 185.015625 309.421875 186.085938 306.867188 C 187.925781 302.292969 182.226562 297.066406 175.632812 294.332031 Z M 171.652344 304.015625 C 166.25 301.816406 163.8125 298.667969 163.933594 297.835938 C 164.171875 297.539062 165.121094 297.242188 166.546875 297.242188 C 167.4375 297.242188 168.507812 297.363281 169.695312 297.597656 C 170.941406 297.835938 172.308594 298.253906 173.792969 298.847656 C 179.195312 301.042969 181.632812 304.191406 181.511719 305.023438 C 180.976562 305.738281 177.058594 306.210938 171.652344 304.015625 Z M 171.652344 304.015625 " fill-opacity="1" fill-rule="nonzero"/><path fill="#8f7a45" d="M 269.472656 277.640625 C 268.761719 276.453125 266.917969 274.433594 262.167969 274.96875 C 260.800781 275.148438 259.316406 275.503906 257.773438 276.039062 C 256.230469 276.574219 254.683594 277.285156 253.140625 278.175781 C 250.113281 279.957031 247.5 282.15625 245.835938 284.414062 C 243.042969 288.214844 243.816406 290.828125 244.46875 292.015625 C 245.0625 293.085938 246.609375 294.75 250.230469 294.75 C 250.707031 294.75 251.179688 294.75 251.714844 294.6875 C 254.507812 294.390625 257.714844 293.203125 260.742188 291.480469 C 263.773438 289.699219 266.386719 287.5 268.046875 285.246094 C 270.898438 281.441406 270.1875 278.890625 269.472656 277.640625 Z M 258.367188 287.265625 C 253.320312 290.175781 249.339844 290.234375 248.746094 289.640625 C 248.507812 288.808594 250.527344 285.363281 255.574219 282.453125 C 260.625 279.542969 264.601562 279.484375 265.199219 280.078125 C 265.433594 280.910156 263.414062 284.355469 258.367188 287.265625 Z M 258.367188 287.265625 " fill-opacity="1" fill-rule="nonzero"/><path fill="#d6bc5d" d="M 258.367188 287.265625 C 253.320312 290.175781 249.339844 290.234375 248.746094 289.640625 C 248.507812 288.808594 250.527344 285.363281 255.574219 282.453125 C 260.625 279.542969 264.601562 279.484375 265.199219 280.078125 C 265.433594 280.910156 263.414062 284.355469 258.367188 287.265625 Z M 258.367188 287.265625 " fill-opacity="1" fill-rule="nonzero"/><path fill="#8f7a45" d="M 328.09375 226.082031 L 324.589844 208.917969 C 324.351562 207.789062 323.34375 206.957031 322.214844 206.957031 L 285.210938 206.957031 L 200.339844 197.511719 C 194.875 194.839844 132.515625 164.25 111.015625 145.835938 C 92.722656 130.152344 89.691406 90.117188 103.769531 50.675781 C 104.957031 47.410156 104.066406 43.90625 101.453125 41.648438 C 98.839844 39.332031 95.15625 38.917969 92.066406 40.460938 C 28.875 72.476562 21.449219 150.527344 42.117188 213.667969 C 52.214844 244.554688 75.140625 273.660156 106.617188 295.519531 C 136.253906 316.132812 170.167969 327.953125 199.746094 327.953125 C 227.71875 327.953125 259.910156 315.65625 285.925781 295.046875 C 311.941406 274.433594 327.738281 248.890625 328.152344 226.617188 C 328.152344 226.4375 328.152344 226.261719 328.09375 226.082031 Z M 282.835938 291.242188 C 257.65625 311.203125 226.59375 323.082031 199.6875 323.082031 C 144.511719 323.082031 68.132812 277.523438 46.75 212.183594 C 26.734375 151.003906 33.683594 75.566406 94.324219 44.796875 C 94.859375 44.5 95.394531 44.382812 95.929688 44.382812 C 96.878906 44.382812 97.710938 44.796875 98.246094 45.273438 C 98.660156 45.628906 99.964844 46.996094 99.195312 49.015625 C 86.542969 84.476562 85.476562 130.332031 107.867188 149.578125 C 130.671875 169.121094 195.828125 200.777344 198.617188 202.144531 C 198.855469 202.265625 199.152344 202.324219 199.390625 202.382812 L 284.796875 211.886719 C 284.914062 211.886719 284.976562 211.886719 285.09375 211.886719 L 320.195312 211.886719 L 323.222656 226.855469 C 322.691406 247.585938 307.605469 271.640625 282.835938 291.242188 Z M 282.835938 291.242188 " fill-opacity="1" fill-rule="nonzero"/><g clip-path="url(#ea5477ffaf)"><path fill="#8f7a45" d="M 199.6875 329.199219 C 169.929688 329.199219 135.722656 317.320312 105.90625 296.589844 C 74.191406 274.550781 51.144531 245.210938 40.929688 214.085938 C 20.144531 150.46875 27.6875 71.703125 91.53125 39.332031 C 95.097656 37.550781 99.3125 38.085938 102.28125 40.699219 C 105.253906 43.3125 106.320312 47.292969 104.957031 51.09375 C 91.058594 90.117188 93.96875 129.558594 111.84375 144.945312 C 132.75 162.882812 192.976562 192.582031 200.695312 196.382812 L 285.273438 205.769531 L 322.214844 205.769531 C 323.9375 205.769531 325.480469 207.015625 325.835938 208.679688 L 329.339844 225.84375 C 329.402344 226.140625 329.402344 226.4375 329.402344 226.675781 C 328.925781 249.308594 312.949219 275.265625 286.636719 296.054688 C 260.445312 316.785156 227.898438 329.199219 199.6875 329.199219 Z M 95.929688 40.699219 C 94.800781 40.699219 93.671875 40.9375 92.660156 41.46875 C 30.121094 73.25 22.816406 150.644531 43.304688 213.3125 C 53.34375 243.960938 76.089844 272.832031 107.332031 294.570312 C 136.789062 315.003906 170.464844 326.765625 199.746094 326.765625 C 227.421875 326.765625 259.375 314.585938 285.210938 294.15625 C 310.929688 273.78125 326.550781 248.535156 326.964844 226.617188 C 326.964844 226.5 326.964844 226.4375 326.964844 226.378906 L 323.460938 209.214844 C 323.34375 208.621094 322.867188 208.261719 322.273438 208.261719 L 285.152344 208.261719 L 200.101562 198.757812 L 199.925781 198.640625 C 192.976562 195.253906 131.683594 165.078125 110.359375 146.785156 C 91.710938 130.804688 88.503906 90.238281 102.757812 50.261719 C 103.769531 47.46875 102.996094 44.5 100.738281 42.539062 C 99.3125 41.292969 97.652344 40.699219 95.929688 40.699219 Z M 199.6875 324.328125 C 144.09375 324.328125 67.121094 278.414062 45.5625 212.597656 C 25.429688 150.941406 32.496094 74.792969 93.730469 43.726562 C 95.453125 42.835938 97.589844 43.132812 99.015625 44.382812 C 100.144531 45.390625 101.09375 47.230469 100.324219 49.429688 C 87.851562 84.476562 86.664062 129.796875 108.636719 148.625 C 131.445312 168.167969 196.359375 199.710938 199.09375 201.015625 C 199.210938 201.074219 199.332031 201.136719 199.507812 201.136719 L 284.914062 210.640625 C 284.976562 210.640625 284.976562 210.640625 285.035156 210.640625 L 321.144531 210.640625 L 324.410156 226.675781 L 324.410156 226.796875 C 323.878906 247.941406 308.613281 272.355469 283.550781 292.195312 C 258.25 312.332031 226.828125 324.328125 199.6875 324.328125 Z M 95.929688 45.570312 C 95.570312 45.570312 95.214844 45.628906 94.859375 45.804688 C 34.871094 76.277344 28.101562 151.121094 47.9375 211.769531 C 69.140625 276.632812 144.925781 321.835938 199.6875 321.835938 C 226.296875 321.835938 257.121094 310.015625 282.125 290.292969 C 306.535156 270.988281 321.441406 247.289062 322.035156 226.914062 L 319.246094 213.074219 L 285.152344 213.074219 C 285.035156 213.074219 284.914062 213.074219 284.796875 213.074219 L 199.390625 203.570312 C 198.972656 203.511719 198.558594 203.390625 198.203125 203.214844 C 195.46875 201.90625 130.257812 170.246094 107.210938 150.46875 C 84.285156 130.925781 85.296875 84.414062 98.066406 48.597656 C 98.542969 47.351562 97.769531 46.519531 97.414062 46.222656 C 97.234375 45.984375 96.699219 45.570312 95.929688 45.570312 Z M 95.929688 45.570312 " fill-opacity="1" fill-rule="nonzero"/></g><path fill="#000000" d="M 323.222656 226.796875 C 322.691406 247.585938 307.605469 271.640625 282.835938 291.242188 C 257.65625 311.203125 226.59375 323.082031 199.6875 323.082031 C 144.511719 323.082031 68.132812 277.523438 46.75 212.183594 C 39.328125 189.492188 35.644531 164.902344 37.011719 141.261719 C 37.960938 158.664062 41.40625 176.128906 46.75 192.582031 C 68.132812 257.921875 144.511719 303.480469 199.6875 303.480469 C 226.59375 303.480469 257.65625 291.601562 282.835938 271.640625 C 303.148438 255.546875 316.988281 236.417969 321.5625 218.597656 Z M 323.222656 226.796875 " fill-opacity="0.15" fill-rule="nonzero"/><path fill="#d6bc5d" d="M 181.511719 305.023438 C 181.039062 305.738281 177.058594 306.210938 171.652344 304.015625 C 166.25 301.816406 163.8125 298.667969 163.933594 297.835938 C 164.171875 297.539062 165.121094 297.242188 166.546875 297.242188 C 167.4375 297.242188 168.507812 297.363281 169.695312 297.597656 C 170.941406 297.835938 172.308594 298.253906 173.792969 298.847656 C 179.136719 301.105469 181.632812 304.253906 181.511719 305.023438 Z M 181.511719 305.023438 " fill-opacity="1" fill-rule="nonzero"/><path fill="#f7d4ac" d="M 214.949219 174.582031 C 214.949219 208.558594 187.332031 236.179688 153.359375 236.179688 C 119.386719 236.179688 91.769531 208.558594 91.769531 174.582031 C 91.769531 155.101562 100.917969 137.636719 115.113281 126.351562 C 115.644531 129.796875 115.765625 133.480469 115.347656 137.28125 C 115.230469 138.648438 116.179688 139.835938 117.546875 139.953125 C 117.605469 139.953125 117.726562 139.953125 117.785156 139.953125 C 119.03125 139.953125 120.101562 139.003906 120.21875 137.757812 C 120.753906 132.589844 120.457031 127.660156 119.449219 123.144531 C 122.714844 120.945312 126.21875 119.105469 129.902344 117.5625 C 130.851562 121.660156 131.148438 126.234375 130.671875 131.042969 C 130.554688 132.410156 131.503906 133.597656 132.871094 133.71875 C 132.988281 133.71875 133.046875 133.71875 133.109375 133.71875 C 134.355469 133.71875 135.425781 132.765625 135.542969 131.519531 C 136.078125 125.996094 135.722656 120.648438 134.535156 115.898438 C 140.472656 113.996094 146.828125 112.925781 153.359375 112.925781 C 187.273438 112.988281 214.949219 140.609375 214.949219 174.582031 Z M 214.949219 174.582031 " fill-opacity="1" fill-rule="nonzero"/><path fill="#000000" d="M 214.949219 174.582031 C 214.949219 208.558594 187.332031 236.179688 153.359375 236.179688 C 119.386719 236.179688 91.769531 208.558594 91.769531 174.582031 C 91.769531 172.445312 91.890625 170.308594 92.125 168.226562 C 95.335938 199.175781 121.585938 223.410156 153.359375 223.410156 C 185.136719 223.410156 211.386719 199.175781 214.652344 168.226562 C 214.832031 170.308594 214.949219 172.445312 214.949219 174.582031 Z M 214.949219 174.582031 " fill-opacity="0.15" fill-rule="nonzero"/><path fill="#bba695" d="M 186.859375 145.242188 C 185.492188 145.242188 184.363281 146.371094 184.421875 147.734375 C 184.484375 153.496094 182.285156 158.960938 178.066406 163.121094 C 173.199219 167.992188 166.070312 170.542969 158.171875 170.367188 C 156.804688 170.308594 155.675781 171.375 155.675781 172.742188 C 155.617188 174.109375 156.6875 175.238281 158.054688 175.238281 C 158.351562 175.238281 158.648438 175.238281 159.003906 175.238281 C 167.910156 175.238281 175.929688 172.207031 181.574219 166.566406 C 186.679688 161.515625 189.472656 154.746094 189.351562 147.617188 C 189.292969 146.308594 188.222656 145.242188 186.859375 145.242188 Z M 186.859375 145.242188 " fill-opacity="1" fill-rule="nonzero"/><path fill="#bba695" d="M 147.660156 179.929688 C 146.292969 179.929688 145.222656 181.058594 145.222656 182.425781 C 145.285156 188.1875 143.085938 193.652344 138.867188 197.808594 C 134 202.679688 126.871094 205.234375 118.972656 205.054688 C 117.605469 204.996094 116.476562 206.066406 116.476562 207.433594 C 116.417969 208.796875 117.488281 209.925781 118.855469 209.925781 C 119.152344 209.925781 119.449219 209.925781 119.804688 209.925781 C 128.710938 209.925781 136.730469 206.898438 142.375 201.253906 C 147.480469 196.207031 150.273438 189.433594 150.152344 182.304688 C 150.09375 181 149.023438 179.929688 147.660156 179.929688 Z M 147.660156 179.929688 " fill-opacity="1" fill-rule="nonzero"/><path fill="#bba695" d="M 177.890625 194.601562 C 176.582031 194.839844 175.691406 196.144531 175.988281 197.453125 C 176.582031 200.601562 178.007812 210.996094 170.289062 212.957031 C 167.972656 213.550781 166.128906 213.3125 164.765625 212.242188 C 162.984375 210.816406 161.972656 207.964844 161.972656 204.34375 C 161.972656 202.976562 160.902344 201.90625 159.539062 201.847656 C 158.171875 201.847656 157.101562 202.917969 157.101562 204.285156 C 157.042969 209.511719 158.707031 213.726562 161.734375 216.105469 C 163.042969 217.113281 165.0625 218.183594 167.972656 218.183594 C 169.039062 218.183594 170.226562 218.0625 171.476562 217.707031 C 179.375 215.6875 182.9375 207.550781 180.742188 196.503906 C 180.503906 195.253906 179.195312 194.363281 177.890625 194.601562 Z M 177.890625 194.601562 " fill-opacity="1" fill-rule="nonzero"/><path fill="#f7d4ac" d="M 89.511719 193.175781 C 85.773438 192.820312 82.863281 189.613281 82.863281 185.808594 C 82.863281 182.898438 84.523438 180.34375 87.019531 179.097656 C 87.316406 183.96875 88.207031 188.660156 89.511719 193.175781 Z M 89.511719 193.175781 " fill-opacity="1" fill-rule="nonzero"/><path fill="#000000" d="M 89.511719 193.175781 C 85.773438 192.820312 82.863281 189.613281 82.863281 185.808594 C 82.863281 182.898438 84.523438 180.34375 87.019531 179.097656 C 87.316406 183.96875 88.207031 188.660156 89.511719 193.175781 Z M 89.511719 193.175781 " fill-opacity="0.15" fill-rule="nonzero"/><path fill="#f7d4ac" d="M 187.925781 116.550781 C 187.925781 116.964844 187.867188 117.324219 187.808594 117.738281 C 183.769531 115.304688 179.433594 113.222656 174.921875 111.679688 C 176.285156 110.078125 178.304688 109.125 180.503906 109.125 C 184.601562 109.125 187.925781 112.453125 187.925781 116.550781 Z M 187.925781 116.550781 " fill-opacity="1" fill-rule="nonzero"/><path fill="#fdfffe" d="M 347.039062 220.023438 C 347.039062 220.082031 346.980469 220.082031 346.980469 220.144531 C 345.4375 222.578125 341.992188 224.417969 337.773438 225.074219 C 330.410156 226.261719 322.214844 223.886719 315.503906 218.71875 C 316.929688 216.578125 318.175781 214.5 319.304688 212.480469 C 319.421875 212.183594 319.601562 211.945312 319.71875 211.648438 C 322.453125 206.421875 324.707031 200.480469 326.195312 194.1875 C 333.738281 197.097656 343.179688 206.066406 346.445312 213.789062 C 347.632812 216.519531 347.8125 218.71875 347.039062 220.023438 Z M 347.039062 220.023438 " fill-opacity="1" fill-rule="nonzero"/><path fill="#fdfffe" d="M 320.253906 197.097656 C 318.949219 201.433594 317.285156 205.589844 315.324219 209.390625 C 307.1875 225.074219 288.0625 245.625 268.34375 241.289062 C 268.285156 241.289062 268.285156 241.289062 268.226562 241.289062 C 266.148438 240.8125 264.007812 240.042969 261.929688 238.972656 C 256.050781 235.941406 252.367188 231.25 250.941406 225.074219 C 248.269531 213.074219 254.683594 197.394531 259.851562 190.621094 C 260.683594 189.550781 260.445312 188.007812 259.375 187.175781 C 258.308594 186.34375 256.761719 186.582031 255.933594 187.652344 C 251.238281 193.710938 242.746094 211.171875 246.132812 226.140625 C 246.84375 229.410156 248.09375 232.261719 249.816406 234.816406 C 252.191406 238.320312 255.457031 241.171875 259.675781 243.308594 C 260.148438 243.546875 260.625 243.785156 261.039062 243.960938 C 247.675781 249.1875 223.683594 253.585938 205.152344 251.089844 C 207.882812 248.59375 210.4375 245.980469 212.8125 243.25 C 214.714844 241.050781 216.4375 238.734375 217.980469 236.359375 C 218.691406 235.230469 218.394531 233.6875 217.265625 232.972656 C 216.140625 232.261719 214.59375 232.558594 213.882812 233.6875 C 213.761719 233.921875 213.585938 234.101562 213.464844 234.339844 C 209.308594 240.457031 204.023438 245.921875 198.320312 250.554688 C 198.144531 250.675781 198.023438 250.792969 197.90625 250.910156 C 185.90625 260.535156 172.484375 266.238281 165.238281 266.296875 C 163.695312 266.296875 161.734375 266.058594 160.964844 264.871094 C 159.835938 263.148438 159.476562 261.1875 159.894531 258.988281 C 161.082031 253.050781 167.972656 245.328125 180.917969 235.230469 C 201.945312 225.609375 217.089844 205.351562 219.523438 181.414062 C 232.886719 179.21875 240.90625 169.890625 248.6875 160.921875 C 253.257812 155.636719 257.59375 150.585938 262.761719 147.378906 C 276.304688 138.945312 302.613281 136.210938 314.789062 150.941406 C 324.589844 162.644531 325.007812 181.117188 320.253906 197.097656 Z M 320.253906 197.097656 " fill-opacity="1" fill-rule="nonzero"/><path fill="#000000" d="M 320.253906 197.097656 C 318.949219 201.433594 317.285156 205.589844 315.324219 209.390625 C 307.1875 225.074219 288.0625 245.625 268.34375 241.289062 C 268.285156 241.289062 268.285156 241.289062 268.226562 241.289062 C 266.148438 240.8125 264.007812 240.042969 261.929688 238.972656 C 256.050781 235.941406 252.367188 231.25 250.941406 225.074219 C 248.269531 213.074219 254.683594 197.394531 259.851562 190.621094 C 252.011719 201.3125 253.792969 223.46875 270.1875 228.519531 C 286.636719 233.566406 298.753906 226.5 308.375 216.28125 C 313.957031 210.402344 317.699219 203.511719 320.253906 197.097656 Z M 320.253906 197.097656 " fill-opacity="0.15" fill-rule="nonzero"/><path fill="#000000" d="M 261.097656 243.902344 C 247.734375 249.128906 223.742188 253.527344 205.210938 251.03125 C 207.941406 248.535156 210.496094 245.921875 212.871094 243.191406 C 228.316406 243.546875 239.363281 240.457031 249.875 234.753906 C 252.25 238.261719 255.515625 241.109375 259.734375 243.25 C 260.148438 243.488281 260.625 243.722656 261.097656 243.902344 Z M 261.097656 243.902344 " fill-opacity="0.15" fill-rule="nonzero"/><path fill="#000000" d="M 213.527344 234.28125 C 209.367188 240.398438 204.082031 245.863281 198.378906 250.496094 C 198.203125 250.613281 198.082031 250.734375 197.964844 250.851562 C 185.96875 260.476562 172.542969 266.175781 165.296875 266.238281 C 163.753906 266.238281 161.792969 266 161.023438 264.8125 C 159.894531 263.089844 159.539062 261.128906 159.953125 258.929688 C 165.417969 261.664062 173.554688 260.179688 183.058594 255.722656 C 193.867188 250.496094 209.308594 240.101562 213.527344 234.28125 Z M 213.527344 234.28125 " fill-opacity="0.15" fill-rule="nonzero"/><path fill="#000000" d="M 346.980469 220.144531 C 345.4375 222.578125 341.992188 224.417969 337.773438 225.074219 C 330.410156 226.261719 322.214844 223.886719 315.503906 218.71875 C 316.929688 216.578125 318.175781 214.5 319.304688 212.480469 C 325.242188 219.015625 335.339844 221.925781 346.980469 220.144531 Z M 346.980469 220.144531 " fill-opacity="0.15" fill-rule="nonzero"/><path fill="#baccce" d="M 350.960938 211.828125 C 347.335938 203.390625 336.824219 192.582031 327.144531 189.316406 C 329.636719 174.644531 327.917969 159.019531 318.53125 147.617188 C 312.296875 140.011719 302.082031 135.675781 289.84375 135.441406 C 279.273438 135.203125 268.167969 138.054688 260.148438 143.042969 C 254.328125 146.667969 249.578125 152.191406 244.945312 157.597656 C 237.996094 165.675781 230.808594 173.929688 219.820312 176.246094 C 219.761719 177.96875 219.703125 179.632812 219.523438 181.296875 C 232.886719 179.097656 240.90625 169.773438 248.6875 160.804688 C 253.257812 155.515625 257.59375 150.46875 262.761719 147.261719 C 276.304688 138.824219 302.613281 136.09375 314.789062 150.824219 C 327.320312 166.03125 324.589844 191.808594 315.382812 209.453125 C 307.246094 225.132812 288.121094 245.683594 268.40625 241.347656 C 268.34375 241.347656 268.34375 241.347656 268.285156 241.347656 C 266.207031 240.875 264.070312 240.101562 261.988281 239.03125 C 256.109375 236.003906 252.429688 231.308594 251.003906 225.132812 C 248.328125 213.132812 254.746094 197.453125 259.910156 190.679688 C 260.742188 189.613281 260.503906 188.066406 259.4375 187.234375 C 258.367188 186.40625 256.824219 186.640625 255.992188 187.710938 C 251.300781 193.769531 242.804688 211.234375 246.191406 226.203125 C 247.914062 233.921875 252.488281 239.683594 259.675781 243.367188 C 260.148438 243.605469 260.625 243.84375 261.039062 244.023438 C 247.675781 249.25 223.683594 253.644531 205.152344 251.148438 C 210.082031 246.695312 214.535156 241.703125 217.980469 236.417969 C 218.691406 235.289062 218.394531 233.746094 217.265625 233.03125 C 216.140625 232.320312 214.59375 232.617188 213.882812 233.746094 C 209.722656 240.160156 204.199219 245.804688 198.320312 250.613281 C 198.144531 250.734375 198.023438 250.851562 197.90625 250.972656 C 185.90625 260.59375 172.484375 266.296875 165.238281 266.355469 C 163.695312 266.355469 161.734375 266.117188 160.964844 264.929688 C 156.746094 258.574219 163.101562 249.128906 180.859375 235.289062 C 176.820312 237.132812 172.542969 238.617188 168.089844 239.625 C 158.230469 248.714844 151.042969 258.8125 156.863281 267.664062 C 157.992188 269.324219 160.308594 271.285156 165.238281 271.285156 L 165.296875 271.285156 C 174.207031 271.285156 188.105469 264.988281 200.339844 255.367188 C 205.507812 256.4375 211.148438 256.851562 216.96875 256.851562 C 236.511719 256.851562 257.773438 251.683594 268.046875 246.339844 C 269.949219 246.695312 271.847656 246.933594 273.75 246.933594 C 289.015625 246.933594 303.207031 235.289062 312.652344 222.875 C 319.066406 227.746094 326.726562 230.417969 334.035156 230.417969 C 335.519531 230.417969 337.0625 230.300781 338.488281 230.0625 C 344.308594 229.171875 348.941406 226.5 351.199219 222.757812 C 352.386719 220.675781 353.277344 217.292969 350.960938 211.828125 Z M 347.039062 220.023438 C 345.496094 222.519531 342.050781 224.359375 337.773438 225.074219 C 330.410156 226.261719 322.214844 223.886719 315.503906 218.71875 C 317.105469 216.339844 318.53125 213.90625 319.71875 211.648438 C 322.453125 206.421875 324.707031 200.480469 326.195312 194.1875 C 333.738281 197.097656 343.179688 206.066406 346.445312 213.789062 C 347.632812 216.519531 347.8125 218.71875 347.039062 220.023438 Z M 347.039062 220.023438 " fill-opacity="1" fill-rule="nonzero"/><path fill="#baccce" d="M 165.296875 272.296875 C 159.773438 272.296875 157.101562 270.039062 155.855469 268.136719 C 150.570312 260.179688 154.3125 250.496094 167.257812 238.558594 L 167.496094 238.320312 L 167.792969 238.261719 C 172.070312 237.308594 176.285156 235.882812 180.324219 234.042969 L 189.828125 229.707031 L 181.632812 236.0625 C 164.703125 249.25 158.289062 258.457031 161.972656 264.039062 C 162.328125 264.574219 163.578125 264.929688 165.238281 264.929688 C 171.773438 264.929688 184.78125 259.761719 197.132812 249.902344 C 197.3125 249.722656 197.488281 249.605469 197.667969 249.484375 C 203.964844 244.378906 209.070312 238.792969 212.933594 232.972656 C 213.464844 232.140625 214.296875 231.605469 215.25 231.371094 C 216.199219 231.191406 217.207031 231.371094 218.039062 231.902344 C 218.871094 232.4375 219.40625 233.269531 219.644531 234.21875 C 219.820312 235.171875 219.644531 236.179688 219.109375 236.953125 C 216.199219 241.46875 212.457031 245.863281 208.003906 250.140625 C 224.453125 251.804688 245.0625 248.296875 258.070312 243.785156 C 251.121094 239.863281 246.785156 234.042969 245.0625 226.378906 C 241.617188 210.9375 250.347656 193.117188 255.101562 186.878906 C 255.695312 186.105469 256.585938 185.574219 257.535156 185.453125 C 258.484375 185.335938 259.496094 185.574219 260.269531 186.167969 C 261.039062 186.761719 261.574219 187.652344 261.691406 188.601562 C 261.8125 189.550781 261.574219 190.5625 260.980469 191.335938 C 255.933594 197.929688 249.636719 213.132812 252.25 224.777344 C 253.554688 230.597656 257.0625 234.992188 262.585938 237.84375 C 264.484375 238.855469 266.5625 239.566406 268.640625 240.042969 C 268.640625 240.042969 268.703125 240.042969 268.761719 240.042969 C 288.0625 244.320312 306.59375 223.707031 314.375 208.796875 C 323.402344 191.511719 326.132812 166.269531 313.898438 151.476562 C 302.199219 137.28125 276.601562 139.953125 263.476562 148.152344 C 258.425781 151.300781 254.148438 156.230469 249.636719 161.457031 C 241.738281 170.605469 233.542969 180.109375 219.761719 182.367188 L 218.160156 182.601562 L 218.335938 181 C 218.515625 179.335938 218.632812 177.671875 218.632812 176.070312 L 218.632812 175.117188 L 219.582031 174.941406 C 230.214844 172.742188 237.222656 164.546875 244.054688 156.703125 C 248.746094 151.300781 253.554688 145.65625 259.554688 141.914062 C 267.75 136.804688 279.15625 133.894531 289.964844 134.132812 C 302.554688 134.429688 313.066406 138.886719 319.542969 146.785156 C 328.035156 157.0625 331.242188 171.851562 328.570312 188.484375 C 338.488281 192.34375 348.644531 203.214844 352.089844 211.351562 C 354.644531 217.292969 353.574219 221.09375 352.265625 223.230469 C 349.773438 227.269531 344.84375 230.179688 338.667969 231.132812 C 337.121094 231.371094 335.578125 231.488281 333.972656 231.488281 C 326.726562 231.488281 319.246094 228.992188 312.832031 224.417969 C 306.773438 232.199219 292.160156 247.941406 273.75 247.941406 C 271.96875 247.941406 270.066406 247.765625 268.226562 247.40625 C 258.128906 252.515625 236.925781 257.863281 216.96875 257.863281 C 211.03125 257.863281 205.566406 257.386719 200.636719 256.4375 C 188.285156 266.117188 174.445312 272.296875 165.296875 272.296875 Z M 168.683594 240.578125 C 156.984375 251.445312 153.421875 260.058594 157.875 266.832031 C 159.242188 268.851562 161.734375 269.917969 165.238281 269.917969 C 173.910156 269.917969 187.691406 263.625 199.507812 254.296875 L 199.925781 253.941406 L 200.460938 254.058594 C 205.328125 255.070312 210.851562 255.546875 216.851562 255.546875 C 236.6875 255.546875 257.714844 250.199219 267.335938 245.148438 L 267.691406 244.972656 L 268.109375 245.03125 C 269.949219 245.386719 271.789062 245.566406 273.570312 245.566406 C 291.6875 245.566406 306.117188 229.113281 311.464844 221.984375 L 312.175781 221.035156 L 313.128906 221.746094 C 319.363281 226.441406 326.667969 229.054688 333.796875 229.054688 C 335.222656 229.054688 336.707031 228.933594 338.074219 228.695312 C 343.535156 227.863281 347.8125 225.371094 349.949219 221.925781 C 350.960938 220.261719 351.734375 217.292969 349.59375 212.300781 C 346.210938 204.402344 336.171875 193.769531 326.550781 190.445312 L 325.539062 190.085938 L 325.71875 189.078125 C 328.511719 172.742188 325.539062 158.308594 317.34375 148.390625 C 311.285156 141.082031 301.488281 136.925781 289.609375 136.628906 C 279.273438 136.390625 268.40625 139.183594 260.566406 144.054688 C 254.863281 147.617188 250.171875 153.082031 245.65625 158.367188 C 238.769531 166.328125 231.699219 174.582031 220.832031 177.199219 C 220.773438 178.027344 220.773438 178.921875 220.710938 179.75 C 232.710938 177.136719 240.253906 168.40625 247.558594 159.914062 C 252.191406 154.507812 256.585938 149.457031 261.929688 146.132812 C 275.828125 137.460938 302.972656 134.726562 315.5625 149.933594 C 328.449219 165.554688 325.660156 191.929688 316.335938 209.925781 C 308.199219 225.488281 288.65625 246.992188 267.988281 242.417969 C 267.988281 242.417969 267.929688 242.417969 267.871094 242.417969 C 265.613281 241.882812 263.414062 241.109375 261.277344 239.984375 C 255.042969 236.773438 251.179688 231.84375 249.695312 225.25 C 246.90625 212.894531 253.496094 196.800781 258.84375 189.789062 C 259.019531 189.550781 259.140625 189.195312 259.078125 188.898438 C 259.019531 188.601562 258.84375 188.304688 258.605469 188.066406 C 258.367188 187.890625 258.011719 187.769531 257.714844 187.828125 C 257.417969 187.890625 257.121094 188.066406 256.882812 188.304688 C 252.308594 194.246094 243.996094 211.234375 247.261719 225.785156 C 248.921875 233.09375 253.257812 238.617188 260.148438 242.179688 C 260.503906 242.359375 260.800781 242.535156 261.160156 242.65625 L 264.070312 244.023438 L 261.457031 245.03125 C 247.796875 250.378906 223.324219 254.714844 204.972656 252.21875 L 202.359375 251.863281 L 204.320312 250.082031 C 209.488281 245.386719 213.703125 240.515625 216.96875 235.585938 C 217.148438 235.289062 217.207031 234.992188 217.148438 234.695312 C 217.089844 234.398438 216.910156 234.101562 216.613281 233.921875 C 216.316406 233.746094 216.019531 233.6875 215.722656 233.746094 C 215.425781 233.804688 215.128906 233.984375 214.949219 234.28125 C 210.972656 240.339844 205.625 246.101562 199.152344 251.386719 L 199.035156 251.507812 C 198.972656 251.566406 198.914062 251.625 198.855469 251.683594 L 198.738281 251.804688 C 187.453125 260.832031 173.375 267.425781 165.296875 267.425781 C 162.625 267.425781 160.84375 266.769531 159.953125 265.464844 C 155.796875 259.226562 160.191406 250.972656 174.089844 239.089844 C 172.308594 239.625 170.464844 240.101562 168.683594 240.578125 Z M 333.972656 226.558594 C 327.441406 226.558594 320.609375 224.121094 314.730469 219.667969 L 313.839844 218.957031 L 314.492188 218.003906 C 316.039062 215.746094 317.402344 213.371094 318.652344 211.054688 C 321.382812 205.828125 323.582031 199.886719 325.007812 193.886719 L 325.304688 192.523438 L 326.609375 192.996094 C 334.628906 196.085938 344.191406 205.351562 347.574219 213.253906 C 348.941406 216.402344 349.121094 219.015625 348.109375 220.617188 C 346.386719 223.410156 342.585938 225.488281 337.953125 226.203125 C 336.648438 226.4375 335.28125 226.558594 333.972656 226.558594 Z M 317.105469 218.421875 C 323.460938 222.933594 330.828125 224.894531 337.539062 223.824219 C 341.515625 223.230469 344.664062 221.570312 345.972656 219.371094 C 346.507812 218.480469 346.269531 216.519531 345.257812 214.203125 C 342.347656 207.371094 334.035156 199.117188 326.964844 195.789062 C 325.480469 201.492188 323.34375 207.132812 320.730469 212.125 C 319.660156 214.261719 318.472656 216.339844 317.105469 218.421875 Z M 317.105469 218.421875 " fill-opacity="1" fill-rule="nonzero"/><path fill="#b3a693" d="M 219.820312 174.582031 C 219.820312 173.988281 219.820312 173.335938 219.761719 172.742188 C 219.761719 172.445312 219.761719 172.207031 219.761719 171.910156 C 219.761719 171.496094 219.703125 171.078125 219.703125 170.722656 C 219.703125 170.542969 219.703125 170.367188 219.644531 170.1875 C 219.644531 169.652344 219.582031 169.179688 219.523438 168.703125 C 219.523438 168.585938 219.523438 168.40625 219.464844 168.289062 C 219.40625 167.695312 219.347656 167.097656 219.285156 166.566406 C 219.167969 165.316406 218.929688 164.011719 218.691406 162.761719 C 218.632812 162.464844 218.574219 162.109375 218.515625 161.8125 C 218.457031 161.457031 218.394531 161.039062 218.277344 160.683594 C 218.277344 160.566406 218.21875 160.386719 218.160156 160.269531 C 218.039062 159.675781 217.863281 159.082031 217.742188 158.488281 C 217.625 157.953125 217.445312 157.359375 217.328125 156.824219 C 217.265625 156.703125 217.265625 156.527344 217.207031 156.40625 C 217.03125 155.8125 216.851562 155.21875 216.671875 154.683594 C 216.496094 154.03125 216.257812 153.4375 216.078125 152.84375 C 215.902344 152.25 215.664062 151.714844 215.484375 151.179688 C 215.425781 151.0625 215.425781 150.941406 215.367188 150.882812 C 215.1875 150.347656 214.949219 149.875 214.773438 149.339844 C 214.773438 149.28125 214.714844 149.21875 214.714844 149.160156 C 214.476562 148.566406 214.238281 148.03125 214 147.4375 C 214 147.4375 214 147.378906 213.941406 147.378906 C 213.703125 146.84375 213.40625 146.25 213.167969 145.714844 C 212.871094 145.121094 212.574219 144.527344 212.277344 143.992188 C 211.980469 143.398438 211.683594 142.863281 211.328125 142.269531 C 211.03125 141.734375 210.675781 141.140625 210.378906 140.609375 C 209.726562 139.480469 209.011719 138.410156 208.300781 137.339844 C 203.902344 130.925781 198.441406 125.34375 192.144531 120.828125 C 192.621094 119.519531 192.855469 118.15625 192.855469 116.789062 C 192.855469 110.015625 187.332031 104.433594 180.5625 104.433594 C 176.226562 104.433594 172.246094 106.75 170.050781 110.375 C 169.398438 110.195312 168.742188 110.078125 168.089844 109.898438 C 167.496094 109.78125 166.902344 109.660156 166.308594 109.542969 C 166.128906 109.484375 166.011719 109.484375 165.832031 109.421875 C 165.238281 109.304688 164.644531 109.183594 164.050781 109.125 C 163.398438 109.007812 162.804688 108.949219 162.152344 108.828125 C 161.496094 108.710938 160.785156 108.652344 160.132812 108.589844 C 159.714844 108.53125 159.300781 108.53125 158.824219 108.472656 C 158.765625 108.472656 158.707031 108.472656 158.585938 108.472656 C 157.460938 108.355469 156.332031 108.355469 155.203125 108.292969 C 154.609375 108.292969 154.074219 108.292969 153.480469 108.292969 C 152.765625 108.292969 151.996094 108.292969 151.28125 108.355469 C 151.164062 108.355469 151.042969 108.355469 150.984375 108.355469 C 150.628906 108.355469 150.273438 108.414062 149.917969 108.414062 C 149.796875 108.414062 149.679688 108.414062 149.558594 108.414062 C 148.847656 108.472656 148.195312 108.53125 147.480469 108.589844 C 146.945312 108.652344 146.410156 108.710938 145.9375 108.769531 C 145.519531 108.828125 145.105469 108.886719 144.691406 108.949219 C 144.273438 109.007812 143.859375 109.066406 143.441406 109.125 C 143.027344 109.183594 142.609375 109.246094 142.195312 109.304688 C 141.777344 109.363281 141.363281 109.421875 140.949219 109.542969 C 140.53125 109.601562 140.117188 109.71875 139.699219 109.78125 C 139.046875 109.898438 138.394531 110.078125 137.742188 110.253906 C 137.445312 110.3125 137.148438 110.375 136.851562 110.492188 C 136.550781 110.550781 136.253906 110.609375 136.019531 110.730469 C 135.722656 110.789062 135.425781 110.90625 135.128906 110.96875 C 134.890625 111.027344 134.652344 111.085938 134.414062 111.203125 C 134 111.324219 133.582031 111.441406 133.226562 111.5625 C 133.167969 111.503906 133.167969 111.441406 133.109375 111.324219 C 131.027344 106.214844 127.941406 101.9375 123.902344 98.789062 C 122.832031 97.957031 121.289062 98.136719 120.457031 99.207031 C 119.625 100.277344 119.804688 101.820312 120.871094 102.652344 C 124.257812 105.265625 126.871094 108.886719 128.59375 113.164062 C 127.703125 113.523438 126.8125 113.9375 125.921875 114.351562 C 125.863281 114.351562 125.863281 114.414062 125.800781 114.414062 C 124.613281 114.945312 123.425781 115.542969 122.296875 116.195312 C 122.179688 116.253906 122.0625 116.3125 121.941406 116.371094 C 121.527344 116.609375 121.171875 116.789062 120.753906 117.027344 C 120.339844 117.265625 119.921875 117.5 119.507812 117.738281 C 119.089844 117.976562 118.675781 118.273438 118.257812 118.511719 C 118.199219 118.390625 118.140625 118.214844 118.082031 118.09375 C 116.0625 112.75 112.855469 108.175781 108.636719 104.96875 C 107.570312 104.136719 106.023438 104.316406 105.191406 105.382812 C 104.363281 106.453125 104.539062 107.996094 105.609375 108.828125 C 109.46875 111.800781 112.320312 116.136719 113.984375 121.304688 C 113.984375 121.304688 113.984375 121.304688 113.984375 121.363281 C 113.507812 121.71875 113.035156 122.074219 112.558594 122.492188 C 112.4375 122.550781 112.320312 122.667969 112.203125 122.789062 C 111.726562 123.203125 111.191406 123.558594 110.71875 123.976562 C 110.300781 124.332031 109.945312 124.628906 109.527344 124.984375 C 109.113281 125.34375 108.699219 125.699219 108.339844 126.054688 C 108.28125 126.113281 108.222656 126.171875 108.164062 126.234375 C 107.867188 126.53125 107.570312 126.828125 107.273438 127.125 C 106.679688 127.71875 106.085938 128.3125 105.492188 128.90625 C 105.074219 129.320312 104.660156 129.796875 104.242188 130.210938 C 104.242188 130.210938 104.183594 130.273438 104.183594 130.273438 C 95.335938 140.074219 89.335938 152.488281 87.554688 166.207031 C 87.199219 168.820312 87.019531 171.496094 87.019531 174.167969 C 81.792969 175.652344 78.109375 180.40625 78.109375 185.988281 C 78.109375 192.761719 83.632812 198.285156 90.464844 198.285156 C 90.761719 198.285156 91.058594 198.285156 91.355469 198.226562 C 92.542969 201.371094 93.96875 204.402344 95.570312 207.253906 C 96.582031 209.035156 97.710938 210.816406 98.839844 212.480469 C 99.550781 213.492188 100.265625 214.5 101.035156 215.449219 C 101.273438 215.746094 101.570312 216.105469 101.808594 216.402344 C 102.046875 216.699219 102.28125 216.996094 102.519531 217.292969 C 102.582031 217.351562 102.640625 217.410156 102.640625 217.46875 C 102.878906 217.765625 103.113281 218.003906 103.351562 218.300781 C 103.648438 218.597656 103.886719 218.894531 104.183594 219.253906 C 104.71875 219.847656 105.3125 220.441406 105.90625 221.035156 C 106.203125 221.332031 106.5 221.628906 106.796875 221.925781 C 107.390625 222.519531 107.984375 223.054688 108.578125 223.648438 C 108.816406 223.886719 109.054688 224.0625 109.292969 224.300781 C 110.65625 225.488281 112.023438 226.617188 113.449219 227.746094 C 113.746094 227.984375 114.042969 228.160156 114.339844 228.398438 C 114.636719 228.636719 114.992188 228.875 115.289062 229.113281 C 116.539062 230.003906 117.84375 230.835938 119.152344 231.605469 C 119.507812 231.84375 119.863281 232.023438 120.21875 232.261719 C 122.238281 233.449219 124.378906 234.519531 126.515625 235.46875 C 126.871094 235.644531 127.289062 235.824219 127.703125 236.003906 C 128.179688 236.179688 128.652344 236.417969 129.128906 236.597656 C 129.1875 236.597656 129.246094 236.65625 129.246094 236.65625 C 129.664062 236.835938 130.136719 237.011719 130.554688 237.132812 C 131.683594 237.546875 132.8125 237.902344 134 238.320312 C 134.472656 238.4375 134.890625 238.617188 135.363281 238.734375 C 136.316406 239.03125 137.265625 239.269531 138.214844 239.449219 C 138.511719 239.507812 138.808594 239.566406 139.105469 239.625 C 139.640625 239.746094 140.117188 239.863281 140.652344 239.921875 C 141.601562 240.101562 142.492188 240.28125 143.441406 240.398438 C 143.5 240.398438 143.5625 240.398438 143.621094 240.398438 C 144.035156 240.457031 144.511719 240.515625 144.988281 240.578125 C 145.34375 240.636719 145.757812 240.695312 146.113281 240.695312 C 146.410156 240.753906 146.707031 240.753906 147.007812 240.8125 C 147.125 240.8125 147.242188 240.8125 147.363281 240.875 C 147.71875 240.933594 148.074219 240.933594 148.492188 240.992188 C 149.023438 241.050781 149.621094 241.050781 150.152344 241.109375 C 150.6875 241.171875 151.222656 241.171875 151.757812 241.171875 C 152.351562 241.171875 152.945312 241.171875 153.539062 241.171875 C 154.132812 241.171875 154.667969 241.171875 155.261719 241.171875 C 155.796875 241.171875 156.332031 241.109375 156.863281 241.109375 L 156.984375 241.109375 C 157.28125 241.109375 157.578125 241.050781 157.933594 241.050781 C 158.351562 240.992188 158.765625 240.992188 159.242188 240.933594 C 162.328125 240.636719 165.417969 240.160156 168.386719 239.507812 C 172.839844 238.496094 177.117188 237.070312 181.15625 235.171875 C 181.15625 235.171875 181.214844 235.171875 181.214844 235.113281 C 186.441406 232.675781 191.371094 229.648438 195.765625 226.023438 C 196.300781 225.546875 196.835938 225.132812 197.371094 224.65625 C 199.507812 222.757812 201.527344 220.738281 203.429688 218.597656 C 203.902344 218.0625 204.378906 217.53125 204.796875 216.996094 C 204.796875 216.996094 204.855469 216.933594 204.855469 216.933594 C 205.269531 216.402344 205.6875 215.867188 206.101562 215.332031 C 206.515625 214.796875 206.992188 214.203125 207.410156 213.609375 C 207.644531 213.3125 207.824219 213.015625 208.003906 212.71875 C 208.417969 212.125 208.832031 211.472656 209.25 210.875 C 209.425781 210.578125 209.605469 210.34375 209.785156 210.046875 C 211.921875 206.71875 213.703125 203.15625 215.1875 199.472656 C 215.308594 199.117188 215.484375 198.820312 215.605469 198.460938 C 215.84375 197.808594 216.140625 197.097656 216.375 196.441406 C 216.496094 196.085938 216.613281 195.730469 216.734375 195.433594 C 216.96875 194.71875 217.207031 194.066406 217.386719 193.355469 C 217.445312 193.058594 217.5625 192.820312 217.625 192.523438 C 217.921875 191.511719 218.160156 190.445312 218.394531 189.375 C 218.515625 188.957031 218.574219 188.601562 218.632812 188.1875 C 218.8125 187.296875 218.988281 186.34375 219.167969 185.453125 C 219.226562 184.917969 219.347656 184.445312 219.40625 183.910156 C 219.464844 183.375 219.523438 182.839844 219.582031 182.304688 C 219.644531 182.007812 219.644531 181.710938 219.703125 181.355469 C 219.878906 179.691406 220 178.027344 220 176.304688 C 219.820312 175.652344 219.820312 175.117188 219.820312 174.582031 Z M 82.863281 185.808594 C 82.863281 182.898438 84.523438 180.34375 87.019531 179.15625 C 87.316406 184.027344 88.207031 188.722656 89.511719 193.234375 C 85.773438 192.820312 82.863281 189.613281 82.863281 185.808594 Z M 180.503906 109.125 C 184.601562 109.125 187.925781 112.453125 187.925781 116.550781 C 187.925781 116.964844 187.867188 117.324219 187.808594 117.738281 C 187.273438 117.382812 186.679688 117.085938 186.085938 116.730469 C 185.609375 116.492188 185.195312 116.195312 184.71875 115.957031 C 184.1875 115.660156 183.710938 115.421875 183.175781 115.183594 C 183.117188 115.183594 183.058594 115.125 183.058594 115.125 C 180.445312 113.820312 177.710938 112.691406 174.921875 111.679688 C 176.285156 110.136719 178.304688 109.125 180.503906 109.125 Z M 153.359375 236.179688 C 119.386719 236.179688 91.769531 208.558594 91.769531 174.582031 C 91.769531 155.101562 100.917969 137.636719 115.113281 126.351562 C 115.644531 129.796875 115.765625 133.480469 115.347656 137.28125 C 115.230469 138.648438 116.179688 139.835938 117.546875 139.953125 C 117.605469 139.953125 117.726562 139.953125 117.785156 139.953125 C 119.03125 139.953125 120.101562 139.003906 120.21875 137.757812 C 120.753906 132.589844 120.457031 127.660156 119.449219 123.144531 C 122.714844 120.945312 126.21875 119.105469 129.902344 117.5625 C 130.851562 121.660156 131.148438 126.234375 130.671875 131.042969 C 130.554688 132.410156 131.503906 133.597656 132.871094 133.71875 C 132.988281 133.71875 133.046875 133.71875 133.109375 133.71875 C 134.355469 133.71875 135.425781 132.765625 135.542969 131.519531 C 136.078125 125.996094 135.722656 120.648438 134.535156 115.898438 C 140.472656 113.996094 146.828125 112.925781 153.359375 112.925781 C 187.332031 112.925781 214.949219 140.546875 214.949219 174.523438 C 214.949219 208.5 187.273438 236.179688 153.359375 236.179688 Z M 153.359375 236.179688 " fill-opacity="1" fill-rule="nonzero"/><path fill="#b3a693" d="M 153.359375 242.300781 C 152.765625 242.300781 152.113281 242.300781 151.519531 242.300781 C 150.984375 242.300781 150.449219 242.238281 149.855469 242.238281 C 149.320312 242.238281 148.726562 242.179688 148.132812 242.121094 C 147.777344 242.121094 147.363281 242.0625 146.945312 242.003906 C 146.828125 242.003906 146.707031 242.003906 146.53125 241.941406 C 146.292969 241.941406 145.9375 241.882812 145.640625 241.824219 C 145.285156 241.824219 144.867188 241.765625 144.453125 241.703125 C 144.035156 241.644531 143.5625 241.585938 143.085938 241.527344 L 142.96875 241.527344 C 141.898438 241.347656 141.007812 241.171875 140.058594 240.992188 C 139.523438 240.875 139.046875 240.8125 138.511719 240.695312 C 138.214844 240.636719 137.917969 240.578125 137.621094 240.457031 C 136.671875 240.21875 135.660156 239.980469 134.769531 239.683594 C 134.296875 239.566406 133.820312 239.386719 133.34375 239.269531 C 132.15625 238.914062 130.96875 238.496094 129.839844 238.082031 C 129.605469 237.960938 129.308594 237.902344 129.070312 237.785156 L 128.414062 237.546875 C 127.882812 237.367188 127.40625 237.132812 126.929688 236.953125 C 126.515625 236.773438 126.160156 236.597656 125.742188 236.417969 C 123.605469 235.46875 121.46875 234.339844 119.328125 233.152344 C 118.972656 232.914062 118.617188 232.734375 118.257812 232.5 C 116.894531 231.667969 115.585938 230.835938 114.398438 229.945312 L 114.042969 229.707031 C 113.804688 229.527344 113.566406 229.351562 113.332031 229.230469 C 113.09375 229.054688 112.796875 228.816406 112.5 228.636719 C 111.015625 227.507812 109.589844 226.320312 108.222656 225.132812 C 107.984375 224.953125 107.746094 224.714844 107.507812 224.480469 C 106.855469 223.886719 106.261719 223.351562 105.667969 222.757812 C 105.371094 222.460938 105.074219 222.164062 104.777344 221.867188 C 104.183594 221.273438 103.589844 220.675781 103.054688 220.023438 C 102.757812 219.726562 102.519531 219.429688 102.222656 219.074219 C 101.984375 218.777344 101.75 218.539062 101.511719 218.242188 L 101.332031 218.0625 C 101.09375 217.765625 100.859375 217.46875 100.621094 217.171875 L 99.847656 216.222656 C 99.074219 215.214844 98.304688 214.203125 97.589844 213.195312 C 96.402344 211.472656 95.273438 209.6875 94.207031 207.847656 C 92.660156 205.113281 91.355469 202.324219 90.226562 199.472656 C 90.226562 199.472656 90.167969 199.472656 90.167969 199.472656 C 82.683594 199.472656 76.625 193.414062 76.625 185.929688 C 76.625 180.109375 80.1875 175.117188 85.535156 173.160156 C 85.59375 170.722656 85.773438 168.289062 86.070312 165.910156 C 87.851562 152.25 93.671875 139.597656 102.9375 129.320312 C 102.996094 129.261719 102.996094 129.203125 103.054688 129.144531 C 103.410156 128.726562 103.828125 128.3125 104.242188 127.835938 C 104.777344 127.242188 105.371094 126.648438 106.023438 126.054688 C 106.320312 125.757812 106.617188 125.460938 106.914062 125.222656 C 106.976562 125.164062 107.09375 125.105469 107.152344 124.984375 C 107.507812 124.628906 107.925781 124.273438 108.339844 123.855469 C 108.757812 123.5 109.113281 123.144531 109.527344 122.789062 C 110.003906 122.371094 110.539062 121.957031 111.015625 121.539062 C 111.132812 121.421875 111.25 121.304688 111.429688 121.242188 C 111.667969 121.066406 111.90625 120.886719 112.140625 120.707031 C 110.480469 116.074219 107.804688 112.214844 104.421875 109.601562 C 102.816406 108.355469 102.519531 106.039062 103.769531 104.433594 C 104.363281 103.660156 105.253906 103.1875 106.203125 103.007812 C 107.152344 102.890625 108.164062 103.125 108.933594 103.71875 C 112.972656 106.867188 116.242188 111.203125 118.378906 116.433594 C 118.792969 116.195312 119.210938 115.957031 119.683594 115.660156 C 120.101562 115.421875 120.515625 115.183594 120.871094 115.007812 L 120.933594 114.945312 C 120.992188 114.945312 121.050781 114.886719 121.109375 114.886719 L 121.230469 114.828125 C 122.417969 114.175781 123.664062 113.582031 124.792969 113.046875 L 124.910156 112.988281 C 125.503906 112.75 126.039062 112.511719 126.515625 112.273438 C 124.851562 108.589844 122.535156 105.5625 119.683594 103.363281 C 118.082031 102.117188 117.785156 99.800781 119.03125 98.195312 C 120.277344 96.59375 122.59375 96.296875 124.199219 97.542969 C 128.117188 100.574219 131.265625 104.789062 133.464844 109.78125 C 133.523438 109.78125 133.582031 109.71875 133.640625 109.71875 L 133.761719 109.660156 C 134 109.601562 134.175781 109.542969 134.414062 109.480469 C 134.652344 109.421875 135.007812 109.304688 135.304688 109.246094 C 135.601562 109.183594 135.839844 109.066406 136.136719 109.007812 C 136.492188 108.949219 136.789062 108.828125 137.085938 108.769531 C 137.679688 108.589844 138.394531 108.472656 139.046875 108.292969 C 139.464844 108.234375 139.878906 108.117188 140.292969 108.058594 C 140.710938 107.996094 141.125 107.878906 141.542969 107.820312 C 141.957031 107.761719 142.433594 107.640625 142.847656 107.582031 C 143.203125 107.523438 143.621094 107.460938 144.035156 107.402344 C 144.453125 107.34375 144.867188 107.285156 145.222656 107.226562 L 145.34375 107.226562 C 145.878906 107.164062 146.410156 107.105469 146.945312 107.046875 C 147.660156 106.988281 148.3125 106.929688 149.023438 106.867188 L 149.085938 106.867188 C 149.144531 106.867188 149.261719 106.867188 149.320312 106.867188 L 150.449219 106.808594 C 150.570312 106.808594 150.6875 106.808594 150.808594 106.808594 C 152.054688 106.75 153.421875 106.75 154.785156 106.808594 C 155.914062 106.808594 157.042969 106.867188 158.230469 106.988281 C 158.351562 106.988281 158.410156 106.988281 158.527344 106.988281 C 158.945312 106.988281 159.359375 107.046875 159.773438 107.105469 C 160.488281 107.164062 161.140625 107.285156 161.855469 107.34375 C 162.507812 107.402344 163.160156 107.523438 163.8125 107.640625 C 164.40625 107.761719 165.0625 107.820312 165.65625 107.9375 C 165.773438 107.9375 165.953125 107.996094 166.128906 108.058594 C 166.722656 108.175781 167.257812 108.292969 167.851562 108.414062 L 167.914062 108.414062 C 168.328125 108.472656 168.683594 108.589844 169.101562 108.710938 C 171.652344 105.144531 175.8125 102.949219 180.207031 102.949219 C 187.691406 102.949219 193.746094 109.007812 193.746094 116.492188 C 193.746094 117.679688 193.570312 118.925781 193.273438 120.054688 C 199.390625 124.570312 204.675781 130.09375 209.011719 136.390625 C 209.785156 137.519531 210.496094 138.648438 211.148438 139.714844 C 211.507812 140.3125 211.804688 140.84375 212.160156 141.4375 C 212.515625 142.03125 212.8125 142.628906 213.109375 143.160156 C 213.40625 143.753906 213.703125 144.351562 214 144.945312 C 214.296875 145.539062 214.535156 146.074219 214.832031 146.667969 L 214.890625 146.785156 C 215.128906 147.378906 215.367188 147.914062 215.605469 148.507812 C 215.664062 148.566406 215.664062 148.6875 215.722656 148.746094 C 215.902344 149.21875 216.140625 149.753906 216.316406 150.289062 L 216.4375 150.644531 C 216.671875 151.179688 216.851562 151.773438 217.03125 152.367188 C 217.265625 152.960938 217.445312 153.617188 217.683594 154.269531 C 217.863281 154.863281 218.039062 155.457031 218.21875 156.050781 C 218.277344 156.171875 218.277344 156.347656 218.335938 156.527344 C 218.515625 157.0625 218.632812 157.65625 218.753906 158.191406 C 218.871094 158.785156 219.050781 159.378906 219.167969 159.972656 C 219.226562 160.148438 219.226562 160.269531 219.285156 160.445312 C 219.347656 160.742188 219.464844 161.160156 219.523438 161.515625 C 219.582031 161.8125 219.644531 162.167969 219.703125 162.464844 C 219.941406 163.773438 220.117188 165.078125 220.296875 166.269531 C 220.355469 166.863281 220.414062 167.457031 220.476562 168.050781 C 220.476562 168.167969 220.535156 168.347656 220.535156 168.464844 C 220.59375 168.941406 220.59375 169.417969 220.652344 169.890625 C 220.652344 170.070312 220.710938 170.308594 220.710938 170.484375 C 220.773438 170.902344 220.773438 171.316406 220.773438 171.734375 C 220.773438 171.96875 220.773438 172.265625 220.773438 172.625 C 220.773438 172.742188 220.773438 172.863281 220.773438 172.980469 L 220.832031 172.921875 L 220.773438 176.070312 C 220.710938 177.792969 220.652344 179.515625 220.476562 181.238281 C 220.414062 181.59375 220.414062 181.890625 220.355469 182.1875 C 220.296875 182.722656 220.238281 183.257812 220.179688 183.851562 C 220.117188 184.386719 220.058594 184.859375 219.941406 185.394531 C 219.761719 186.34375 219.644531 187.296875 219.40625 188.1875 C 219.347656 188.601562 219.226562 189.019531 219.167969 189.433594 C 218.929688 190.382812 218.691406 191.394531 218.335938 192.582031 L 218.21875 192.996094 C 218.160156 193.175781 218.160156 193.292969 218.097656 193.472656 C 217.921875 194.1875 217.683594 194.898438 217.445312 195.609375 L 217.386719 195.789062 C 217.265625 196.085938 217.207031 196.382812 217.089844 196.679688 C 216.851562 197.394531 216.613281 198.046875 216.316406 198.757812 L 216.257812 198.996094 C 216.140625 199.292969 216.019531 199.53125 215.960938 199.828125 C 214.417969 203.570312 212.574219 207.195312 210.4375 210.578125 C 210.257812 210.875 210.082031 211.113281 209.902344 211.410156 C 209.488281 212.066406 209.070312 212.660156 208.597656 213.3125 C 208.417969 213.609375 208.179688 213.90625 207.941406 214.203125 C 207.527344 214.796875 207.109375 215.390625 206.636719 215.925781 C 206.21875 216.460938 205.804688 216.996094 205.328125 217.53125 L 205.269531 217.589844 C 204.796875 218.125 204.320312 218.71875 203.84375 219.253906 C 201.945312 221.449219 199.867188 223.46875 197.667969 225.371094 C 197.132812 225.84375 196.597656 226.320312 196.003906 226.796875 C 191.492188 230.480469 186.5625 233.566406 181.335938 236.003906 L 181.277344 236.0625 L 181.097656 236.121094 C 177.058594 237.960938 172.78125 239.449219 168.445312 240.457031 L 168.328125 240.578125 L 167.910156 240.578125 C 164.941406 241.230469 161.855469 241.703125 158.824219 242.003906 L 157.519531 242.121094 C 157.222656 242.121094 156.863281 242.179688 156.566406 242.179688 L 156.390625 242.179688 C 155.914062 242.238281 155.320312 242.238281 154.785156 242.238281 C 154.488281 242.300781 153.894531 242.300781 153.359375 242.300781 Z M 129.542969 235.347656 L 130.019531 235.527344 C 130.257812 235.644531 130.496094 235.707031 130.792969 235.824219 C 131.859375 236.242188 132.988281 236.597656 134.175781 236.953125 C 134.652344 237.070312 135.066406 237.25 135.542969 237.367188 C 136.433594 237.605469 137.382812 237.84375 138.335938 238.082031 C 138.632812 238.140625 138.929688 238.199219 139.226562 238.261719 C 139.699219 238.378906 140.175781 238.496094 140.710938 238.558594 C 141.601562 238.734375 142.492188 238.914062 143.5 239.03125 L 143.679688 239.03125 C 144.15625 239.089844 144.570312 239.152344 144.988281 239.210938 C 145.402344 239.269531 145.757812 239.328125 146.113281 239.328125 C 146.472656 239.386719 146.707031 239.386719 147.003906 239.449219 C 147.183594 239.449219 147.242188 239.449219 147.304688 239.449219 C 147.71875 239.507812 148.074219 239.507812 148.429688 239.566406 C 148.964844 239.625 149.558594 239.625 150.09375 239.683594 C 150.628906 239.746094 151.164062 239.746094 151.699219 239.746094 C 152.828125 239.804688 154.015625 239.804688 155.144531 239.746094 C 155.675781 239.746094 156.210938 239.683594 156.746094 239.683594 L 156.925781 239.683594 C 157.160156 239.683594 157.457031 239.625 157.757812 239.625 L 159.0625 239.507812 C 162.03125 239.269531 165.0625 238.792969 168.03125 238.082031 L 169.277344 237.785156 C 173.078125 236.835938 176.820312 235.527344 180.382812 233.921875 L 180.445312 233.863281 L 180.621094 233.804688 C 185.730469 231.488281 190.539062 228.460938 194.9375 224.894531 C 195.46875 224.480469 196.003906 224.003906 196.539062 223.527344 C 198.617188 221.6875 200.636719 219.726562 202.480469 217.589844 C 202.953125 217.054688 203.371094 216.519531 203.84375 215.984375 C 203.902344 215.925781 203.902344 215.925781 203.964844 215.867188 C 204.378906 215.390625 204.796875 214.855469 205.210938 214.320312 C 205.625 213.789062 206.042969 213.195312 206.457031 212.660156 C 206.695312 212.363281 206.875 212.066406 207.050781 211.828125 C 207.46875 211.234375 207.882812 210.578125 208.300781 209.984375 C 208.476562 209.75 208.65625 209.453125 208.832031 209.152344 C 210.914062 205.886719 212.695312 202.382812 214.179688 198.757812 C 214.296875 198.523438 214.417969 198.226562 214.476562 197.988281 L 214.535156 197.75 C 214.773438 197.097656 215.011719 196.441406 215.246094 195.730469 C 215.367188 195.433594 215.425781 195.136719 215.546875 194.898438 L 215.605469 194.71875 C 215.84375 194.066406 216.019531 193.355469 216.257812 192.640625 C 216.316406 192.523438 216.316406 192.34375 216.375 192.226562 L 216.496094 191.808594 C 216.792969 190.679688 217.03125 189.730469 217.265625 188.78125 C 217.386719 188.425781 217.445312 188.007812 217.503906 187.59375 C 217.683594 186.703125 217.859375 185.808594 217.980469 184.859375 C 218.039062 184.382812 218.160156 183.851562 218.21875 183.375 C 218.277344 182.839844 218.335938 182.304688 218.394531 181.769531 C 218.457031 181.414062 218.457031 181.117188 218.515625 180.820312 C 218.632812 179.574219 218.753906 178.324219 218.753906 177.136719 L 218.8125 175.476562 C 218.8125 175.058594 218.8125 174.703125 218.8125 174.285156 C 218.8125 173.691406 218.8125 173.097656 218.753906 172.503906 C 218.753906 172.207031 218.753906 171.910156 218.753906 171.671875 C 218.753906 171.257812 218.691406 170.839844 218.691406 170.484375 L 218.691406 170.367188 C 218.691406 170.246094 218.691406 170.128906 218.691406 170.011719 L 218.691406 169.890625 C 218.691406 169.417969 218.632812 168.941406 218.574219 168.464844 L 218.574219 168.347656 C 218.574219 168.289062 218.574219 168.167969 218.574219 168.109375 C 218.515625 167.457031 218.457031 166.921875 218.394531 166.328125 C 218.277344 165.140625 218.097656 163.890625 217.863281 162.585938 C 217.800781 162.230469 217.742188 161.933594 217.683594 161.636719 C 217.625 161.21875 217.5625 160.921875 217.445312 160.566406 C 217.386719 160.386719 217.386719 160.269531 217.386719 160.148438 C 217.265625 159.554688 217.089844 158.960938 216.96875 158.425781 C 216.851562 157.894531 216.671875 157.359375 216.554688 156.824219 L 216.554688 156.765625 C 216.554688 156.644531 216.496094 156.527344 216.4375 156.40625 C 216.257812 155.8125 216.078125 155.277344 215.902344 154.746094 C 215.722656 154.089844 215.484375 153.496094 215.308594 152.902344 C 215.128906 152.308594 214.890625 151.773438 214.714844 151.238281 L 214.59375 150.941406 C 214.417969 150.46875 214.179688 149.933594 214 149.457031 L 213.882812 149.21875 C 213.644531 148.6875 213.40625 148.152344 213.230469 147.617188 L 213.167969 147.558594 L 213.109375 147.378906 C 212.871094 146.84375 212.574219 146.308594 212.335938 145.773438 C 212.039062 145.242188 211.804688 144.648438 211.445312 144.050781 C 211.148438 143.457031 210.851562 142.925781 210.554688 142.390625 C 210.257812 141.855469 209.902344 141.320312 209.605469 140.726562 C 208.953125 139.65625 208.300781 138.648438 207.527344 137.519531 C 203.191406 131.222656 197.90625 125.757812 191.667969 121.304688 L 191.132812 120.945312 L 191.132812 119.816406 L 191.3125 119.640625 C 191.667969 118.511719 191.847656 117.382812 191.847656 116.253906 C 191.847656 110.136719 186.859375 105.144531 180.742188 105.144531 C 176.878906 105.144531 173.257812 107.226562 171.238281 110.492188 L 170.882812 111.085938 L 169.929688 111.085938 L 169.753906 111.027344 C 169.21875 110.90625 168.625 110.730469 168.03125 110.609375 L 167.851562 110.550781 C 167.257812 110.433594 166.664062 110.3125 166.070312 110.195312 L 166.011719 110.195312 C 165.894531 110.195312 165.773438 110.136719 165.65625 110.136719 C 165 110.015625 164.40625 109.898438 163.8125 109.839844 C 163.160156 109.71875 162.566406 109.660156 161.972656 109.542969 C 161.320312 109.480469 160.667969 109.363281 160.011719 109.304688 C 159.597656 109.246094 159.179688 109.246094 158.765625 109.183594 L 158.527344 109.183594 C 157.398438 109.125 156.332031 109.066406 155.203125 109.007812 C 153.894531 108.949219 152.648438 108.949219 151.339844 109.007812 C 151.222656 109.007812 151.105469 109.007812 151.042969 109.007812 L 149.917969 109.066406 C 149.796875 109.066406 149.679688 109.066406 149.558594 109.066406 C 148.90625 109.125 148.253906 109.183594 147.539062 109.246094 C 147.003906 109.304688 146.53125 109.363281 145.996094 109.421875 L 145.878906 109.421875 C 145.519531 109.480469 145.164062 109.480469 144.75 109.542969 C 144.332031 109.601562 143.917969 109.660156 143.5 109.71875 C 143.085938 109.78125 142.671875 109.839844 142.253906 109.898438 C 141.839844 109.957031 141.421875 110.015625 141.007812 110.136719 C 140.589844 110.195312 140.175781 110.3125 139.820312 110.375 C 139.164062 110.492188 138.570312 110.671875 137.917969 110.789062 C 137.621094 110.847656 137.324219 110.90625 137.027344 111.027344 C 136.730469 111.085938 136.433594 111.144531 136.195312 111.265625 C 135.898438 111.324219 135.601562 111.441406 135.304688 111.5 C 135.066406 111.5625 134.890625 111.621094 134.710938 111.679688 L 134.59375 111.738281 C 134.175781 111.859375 133.820312 111.976562 133.40625 112.097656 L 132.335938 112.453125 L 131.859375 111.441406 C 131.859375 111.382812 131.800781 111.324219 131.800781 111.265625 L 131.742188 111.144531 C 129.722656 106.097656 126.753906 102.058594 122.890625 99.148438 C 122.359375 98.730469 121.585938 98.851562 121.171875 99.382812 C 120.753906 99.917969 120.871094 100.691406 121.40625 101.105469 C 124.851562 103.78125 127.585938 107.402344 129.425781 111.917969 L 130.496094 113.046875 L 128.832031 113.699219 C 128 114.054688 127.109375 114.414062 126.160156 114.828125 C 126.160156 114.828125 126.039062 114.886719 125.980469 114.886719 C 124.910156 115.363281 123.785156 115.957031 122.59375 116.609375 L 122.476562 116.667969 C 122.359375 116.730469 122.296875 116.789062 122.179688 116.789062 C 121.824219 117.027344 121.40625 117.203125 121.050781 117.441406 C 120.636719 117.679688 120.21875 117.917969 119.804688 118.15625 C 119.386719 118.390625 118.972656 118.628906 118.617188 118.925781 L 117.308594 119.757812 L 116.773438 118.332031 C 116.714844 118.15625 116.65625 118.09375 116.65625 117.976562 C 114.636719 112.691406 111.488281 108.355469 107.570312 105.324219 C 107.332031 105.144531 106.976562 105.027344 106.679688 105.085938 C 106.382812 105.144531 106.085938 105.265625 105.847656 105.5625 C 105.429688 106.097656 105.550781 106.867188 106.085938 107.285156 C 110.0625 110.3125 113.09375 114.828125 114.875 120.292969 L 115.289062 121.183594 L 114.457031 121.777344 C 113.984375 122.132812 113.507812 122.492188 113.03125 122.847656 C 112.914062 122.964844 112.796875 123.023438 112.734375 123.085938 C 112.203125 123.5 111.726562 123.917969 111.25 124.273438 C 110.835938 124.628906 110.480469 124.925781 110.0625 125.28125 C 109.648438 125.640625 109.292969 125.996094 108.875 126.351562 L 108.699219 126.53125 C 108.402344 126.828125 108.105469 127.066406 107.804688 127.363281 C 107.210938 127.957031 106.617188 128.550781 106.085938 129.085938 C 105.667969 129.5 105.253906 129.914062 104.894531 130.390625 L 104.835938 130.449219 C 95.867188 140.371094 90.226562 152.546875 88.503906 165.734375 C 88.148438 168.347656 87.96875 170.960938 87.96875 173.574219 L 87.96875 174.761719 L 86.898438 174.761719 C 82.207031 176.1875 79.058594 180.40625 79.058594 185.394531 C 79.058594 191.511719 84.050781 196.503906 90.167969 196.503906 C 90.40625 196.503906 90.703125 196.503906 90.9375 196.441406 L 91.828125 196.441406 L 92.125 197.214844 C 93.253906 200.246094 94.679688 203.214844 96.285156 206.125 C 97.292969 207.90625 98.363281 209.628906 99.492188 211.292969 C 100.144531 212.242188 100.917969 213.253906 101.628906 214.261719 L 102.402344 215.210938 C 102.640625 215.511719 102.878906 215.746094 103.054688 216.042969 C 103.113281 216.105469 103.175781 216.164062 103.175781 216.222656 C 103.410156 216.519531 103.648438 216.816406 103.886719 217.054688 C 104.125 217.351562 104.421875 217.648438 104.660156 217.945312 C 105.191406 218.539062 105.789062 219.132812 106.320312 219.726562 C 106.617188 220.023438 106.914062 220.320312 107.152344 220.558594 C 107.746094 221.09375 108.339844 221.6875 108.933594 222.222656 C 109.171875 222.460938 109.351562 222.636719 109.589844 222.816406 C 110.894531 224.003906 112.261719 225.132812 113.6875 226.203125 C 113.984375 226.4375 114.28125 226.617188 114.519531 226.855469 C 114.753906 227.035156 114.992188 227.210938 115.171875 227.332031 L 115.527344 227.566406 C 116.714844 228.398438 117.960938 229.230469 119.269531 230.003906 C 119.625 230.242188 119.980469 230.417969 120.277344 230.597656 C 122.296875 231.785156 124.378906 232.855469 126.457031 233.746094 C 126.8125 233.921875 127.226562 234.101562 127.585938 234.21875 C 128.058594 234.398438 128.535156 234.636719 129.007812 234.816406 C 129.425781 235.289062 129.484375 235.347656 129.542969 235.347656 Z M 215.128906 146.84375 Z M 153.359375 237.429688 C 118.734375 237.429688 90.523438 209.273438 90.523438 174.582031 C 90.523438 155.339844 99.195312 137.460938 114.28125 125.402344 L 115.945312 124.09375 L 116.300781 126.171875 C 116.894531 129.738281 116.953125 133.539062 116.597656 137.460938 C 116.539062 138.113281 117.011719 138.707031 117.726562 138.824219 C 117.785156 138.824219 117.785156 138.824219 117.84375 138.824219 C 118.4375 138.824219 118.972656 138.351562 119.03125 137.757812 C 119.507812 132.765625 119.269531 128.015625 118.257812 123.558594 L 118.082031 122.726562 L 118.792969 122.253906 C 122.121094 120.054688 125.742188 118.15625 129.425781 116.609375 L 130.730469 116.074219 L 131.089844 117.5 C 132.097656 121.835938 132.394531 126.53125 131.859375 131.339844 C 131.800781 131.636719 131.921875 131.996094 132.15625 132.230469 C 132.335938 132.46875 132.632812 132.648438 132.988281 132.648438 L 133.109375 132.648438 C 133.761719 132.648438 134.296875 132.171875 134.355469 131.519531 C 134.890625 126.234375 134.535156 121.066406 133.34375 116.3125 L 133.046875 115.183594 L 134.117188 114.828125 C 140.355469 112.808594 146.769531 111.800781 153.359375 111.800781 C 187.988281 111.800781 216.199219 139.953125 216.199219 174.644531 C 216.140625 209.214844 187.988281 237.429688 153.359375 237.429688 Z M 114.160156 128.726562 C 100.679688 140.25 92.957031 156.882812 92.957031 174.582031 C 92.957031 207.847656 120.042969 234.933594 153.300781 234.933594 C 186.5625 234.933594 213.644531 207.847656 213.644531 174.582031 C 213.644531 141.320312 186.5625 114.234375 153.300781 114.234375 C 147.363281 114.234375 141.542969 115.125 135.898438 116.789062 C 136.96875 121.539062 137.207031 126.53125 136.671875 131.699219 C 136.492188 133.597656 134.890625 135.023438 133.046875 135.023438 C 132.929688 135.023438 132.75 135.023438 132.632812 135.023438 C 131.683594 134.90625 130.792969 134.429688 130.199219 133.71875 C 129.605469 132.945312 129.308594 131.996094 129.367188 131.042969 C 129.78125 127.003906 129.605469 123.085938 128.949219 119.402344 C 126.097656 120.648438 123.367188 122.132812 120.753906 123.796875 C 121.644531 128.253906 121.882812 133.003906 121.347656 137.992188 C 121.171875 140.011719 119.328125 141.5 117.308594 141.261719 C 115.289062 141.082031 113.804688 139.242188 114.042969 137.222656 C 114.398438 134.3125 114.398438 131.460938 114.160156 128.726562 Z M 91.175781 194.421875 L 89.394531 194.421875 C 85 193.949219 81.613281 190.265625 81.613281 185.808594 C 81.613281 182.542969 83.394531 179.574219 86.304688 178.089844 L 88.027344 176.484375 L 88.207031 178.980469 C 88.503906 183.671875 89.335938 188.304688 90.640625 192.820312 Z M 85.949219 181.296875 C 84.761719 182.425781 84.050781 184.027344 84.050781 185.808594 C 84.050781 188.363281 85.535156 190.5625 87.730469 191.511719 C 86.898438 188.1875 86.304688 184.742188 85.949219 181.296875 Z M 188.699219 119.757812 L 187.15625 118.808594 C 186.621094 118.453125 186.027344 118.15625 185.492188 117.796875 C 185.078125 117.5625 184.601562 117.324219 184.125 117.085938 C 183.652344 116.789062 183.117188 116.550781 182.640625 116.3125 C 182.582031 116.3125 182.523438 116.253906 182.464844 116.195312 C 179.910156 114.886719 177.175781 113.757812 174.503906 112.867188 L 172.722656 112.273438 L 174.03125 110.847656 C 175.691406 109.007812 178.007812 107.9375 180.503906 107.9375 C 185.253906 107.9375 189.175781 111.800781 189.175781 116.609375 C 189.175781 117.027344 189.117188 117.5 189.054688 117.976562 Z M 177.296875 111.265625 C 179.433594 112.097656 181.574219 112.988281 183.589844 114.054688 L 183.652344 114.117188 C 184.246094 114.414062 184.78125 114.648438 185.253906 114.945312 C 185.671875 115.183594 186.144531 115.421875 186.5625 115.660156 C 186.085938 112.691406 183.53125 110.375 180.445312 110.375 C 179.375 110.375 178.246094 110.671875 177.296875 111.265625 Z M 177.296875 111.265625 " fill-opacity="1" fill-rule="nonzero"/></svg>