<svg xmlns="http://www.w3.org/2000/svg" xmlns:xlink="http://www.w3.org/1999/xlink" width="500" zoomAndPan="magnify" viewBox="0 0 375 374.999991" height="500" preserveAspectRatio="xMidYMid meet" version="1.0"><defs><clipPath id="83b62ecf13"><path d="M 117 83.019531 L 251 83.019531 L 251 213 L 117 213 Z M 117 83.019531 " clip-rule="nonzero"/></clipPath><clipPath id="41ecb174ee"><path d="M 117 83.019531 L 252 83.019531 L 252 213.519531 L 117 213.519531 Z M 117 83.019531 " clip-rule="nonzero"/></clipPath><clipPath id="b6edf27762"><path d="M 172 126 L 262.65625 126 L 262.65625 189 L 172 189 Z M 172 126 " clip-rule="nonzero"/></clipPath></defs><rect x="-37.5" width="450" fill="#ffffff" y="-37.499999" height="449.999989" fill-opacity="1"/><rect x="-37.5" width="450" fill="#8dccff" y="-37.499999" height="449.999989" fill-opacity="1"/><path fill="#fae280" d="M 248.566406 167.691406 C 248.328125 176.992188 241.5625 187.753906 230.457031 196.519531 C 219.164062 205.449219 205.234375 210.761719 193.167969 210.761719 C 168.425781 210.761719 134.175781 190.382812 124.585938 161.15625 C 115.613281 133.789062 118.726562 100.046875 145.921875 86.28125 C 146.160156 86.148438 146.398438 86.09375 146.640625 86.09375 C 147.066406 86.09375 147.4375 86.28125 147.679688 86.492188 C 147.863281 86.652344 148.449219 87.265625 148.105469 88.167969 C 142.433594 104.03125 141.953125 124.542969 151.992188 133.152344 C 162.21875 141.894531 191.4375 156.054688 192.6875 156.664062 C 192.796875 156.71875 192.929688 156.746094 193.035156 156.773438 L 231.335938 161.023438 C 231.386719 161.023438 231.414062 161.023438 231.46875 161.023438 L 247.207031 161.023438 Z M 248.566406 167.691406 " fill-opacity="1" fill-rule="nonzero"/><path fill="#8f7a45" d="M 129.941406 113.621094 C 127.890625 113.328125 126.636719 116.730469 126.183594 119.734375 C 125.734375 122.734375 125.917969 126.375 127.96875 126.695312 C 128.050781 126.722656 128.128906 126.722656 128.234375 126.722656 C 130.128906 126.722656 131.300781 123.480469 131.75 120.582031 C 132.179688 117.554688 131.992188 113.914062 129.941406 113.621094 Z M 129.542969 120.238281 C 129.25 122.152344 128.714844 123.480469 128.34375 124.117188 C 128.15625 123.375 128.050781 121.964844 128.34375 120.050781 C 128.636719 118.140625 129.167969 116.8125 129.542969 116.171875 C 129.648438 116.570312 129.726562 117.210938 129.726562 118.007812 C 129.726562 118.644531 129.675781 119.386719 129.542969 120.238281 Z M 129.542969 120.238281 " fill-opacity="1" fill-rule="nonzero"/><path fill="#d6bc5d" d="M 129.726562 118.007812 C 129.726562 118.644531 129.675781 119.414062 129.542969 120.265625 C 129.25 122.179688 128.714844 123.507812 128.34375 124.144531 C 128.15625 123.398438 128.050781 121.992188 128.34375 120.078125 C 128.636719 118.164062 129.167969 116.835938 129.542969 116.199219 C 129.648438 116.570312 129.726562 117.210938 129.726562 118.007812 Z M 129.726562 118.007812 " fill-opacity="1" fill-rule="nonzero"/><path fill="#8f7a45" d="M 135.132812 159.828125 C 134.308594 156.90625 132.628906 153.664062 130.632812 154.222656 C 128.636719 154.78125 128.902344 158.394531 129.726562 161.34375 C 130.5 164.050781 131.964844 167 133.777344 167 C 133.9375 167 134.070312 166.976562 134.230469 166.949219 C 135.347656 166.628906 135.746094 165.355469 135.746094 163.785156 C 135.746094 162.566406 135.507812 161.128906 135.132812 159.828125 Z M 133.535156 164.476562 C 133.058594 163.867188 132.390625 162.617188 131.859375 160.757812 C 131.324219 158.898438 131.273438 157.464844 131.351562 156.71875 C 131.59375 157.011719 131.886719 157.488281 132.179688 158.101562 C 132.472656 158.710938 132.789062 159.507812 133.03125 160.4375 C 133.535156 162.273438 133.617188 163.707031 133.535156 164.476562 Z M 133.535156 164.476562 " fill-opacity="1" fill-rule="nonzero"/><path fill="#d6bc5d" d="M 133.535156 164.476562 C 133.058594 163.867188 132.390625 162.617188 131.859375 160.757812 C 131.324219 158.898438 131.273438 157.464844 131.351562 156.71875 C 131.59375 157.011719 131.886719 157.488281 132.179688 158.101562 C 132.472656 158.710938 132.789062 159.507812 133.03125 160.4375 C 133.535156 162.273438 133.617188 163.707031 133.535156 164.476562 Z M 133.535156 164.476562 " fill-opacity="1" fill-rule="nonzero"/><path fill="#8f7a45" d="M 151.914062 176.753906 C 151.726562 175.824219 151.246094 174.761719 150.582031 173.777344 C 149.914062 172.792969 149.089844 171.96875 148.265625 171.464844 C 146.800781 170.5625 145.839844 170.933594 145.414062 171.226562 C 144.988281 171.519531 144.296875 172.289062 144.617188 173.964844 C 144.800781 174.894531 145.28125 175.957031 145.949219 176.9375 C 147.226562 178.800781 148.742188 179.835938 149.996094 179.835938 C 150.394531 179.835938 150.769531 179.730469 151.113281 179.488281 C 151.539062 179.199219 152.234375 178.453125 151.914062 176.753906 Z M 147.757812 175.714844 C 146.960938 174.546875 146.71875 173.566406 146.71875 173.113281 C 146.933594 173.191406 147.226562 173.378906 147.597656 173.699219 C 147.972656 174.015625 148.371094 174.441406 148.769531 175.027344 C 149.570312 176.195312 149.808594 177.179688 149.808594 177.628906 C 149.382812 177.445312 148.558594 176.859375 147.757812 175.714844 Z M 147.757812 175.714844 " fill-opacity="1" fill-rule="nonzero"/><path fill="#d6bc5d" d="M 149.808594 177.601562 C 149.410156 177.445312 148.558594 176.859375 147.757812 175.691406 C 146.960938 174.519531 146.71875 173.539062 146.71875 173.085938 C 146.933594 173.167969 147.226562 173.351562 147.597656 173.671875 C 147.972656 173.988281 148.371094 174.414062 148.769531 175 C 149.570312 176.195312 149.808594 177.179688 149.808594 177.601562 Z M 149.808594 177.601562 " fill-opacity="1" fill-rule="nonzero"/><path fill="#8f7a45" d="M 182.382812 197.902344 C 180.917969 197.292969 179.425781 197 178.175781 197.027344 C 176.042969 197.078125 175.351562 198.0625 175.109375 198.648438 C 174.871094 199.230469 174.683594 200.425781 176.148438 201.941406 C 177.027344 202.84375 178.308594 203.667969 179.773438 204.253906 C 181.128906 204.8125 182.570312 205.128906 183.847656 205.128906 C 185.363281 205.128906 186.589844 204.652344 187.070312 203.507812 C 187.894531 201.464844 185.339844 199.125 182.382812 197.902344 Z M 180.597656 202.234375 C 178.175781 201.25 177.082031 199.84375 177.136719 199.46875 C 177.242188 199.335938 177.667969 199.203125 178.308594 199.203125 C 178.707031 199.203125 179.1875 199.257812 179.71875 199.363281 C 180.277344 199.46875 180.890625 199.65625 181.554688 199.921875 C 183.980469 200.90625 185.070312 202.3125 185.019531 202.683594 C 184.777344 203.003906 183.019531 203.21875 180.597656 202.234375 Z M 180.597656 202.234375 " fill-opacity="1" fill-rule="nonzero"/><path fill="#8f7a45" d="M 224.464844 190.4375 C 224.144531 189.90625 223.316406 189 221.1875 189.242188 C 220.574219 189.320312 219.910156 189.480469 219.214844 189.71875 C 218.523438 189.957031 217.832031 190.277344 217.140625 190.675781 C 215.78125 191.472656 214.609375 192.457031 213.863281 193.464844 C 212.609375 195.167969 212.957031 196.335938 213.25 196.867188 C 213.515625 197.34375 214.210938 198.089844 215.832031 198.089844 C 216.046875 198.089844 216.261719 198.089844 216.5 198.0625 C 217.75 197.929688 219.191406 197.398438 220.546875 196.628906 C 221.90625 195.832031 223.078125 194.847656 223.824219 193.835938 C 225.101562 192.136719 224.78125 190.996094 224.464844 190.4375 Z M 219.484375 194.742188 C 217.21875 196.042969 215.433594 196.070312 215.167969 195.804688 C 215.0625 195.433594 215.96875 193.890625 218.230469 192.589844 C 220.496094 191.285156 222.277344 191.261719 222.546875 191.527344 C 222.652344 191.898438 221.746094 193.4375 219.484375 194.742188 Z M 219.484375 194.742188 " fill-opacity="1" fill-rule="nonzero"/><path fill="#d6bc5d" d="M 219.484375 194.742188 C 217.21875 196.042969 215.433594 196.070312 215.167969 195.804688 C 215.0625 195.433594 215.96875 193.890625 218.230469 192.589844 C 220.496094 191.285156 222.277344 191.261719 222.546875 191.527344 C 222.652344 191.898438 221.746094 193.4375 219.484375 194.742188 Z M 219.484375 194.742188 " fill-opacity="1" fill-rule="nonzero"/><g clip-path="url(#83b62ecf13)"><path fill="#8f7a45" d="M 250.75 167.375 L 249.179688 159.695312 C 249.074219 159.191406 248.621094 158.816406 248.113281 158.816406 L 231.519531 158.816406 L 193.460938 154.59375 C 191.011719 153.398438 163.046875 139.714844 153.40625 131.476562 C 145.203125 124.464844 143.84375 106.554688 150.15625 88.910156 C 150.6875 87.449219 150.289062 85.882812 149.117188 84.875 C 147.945312 83.835938 146.292969 83.652344 144.910156 84.34375 C 116.570312 98.664062 113.242188 133.578125 122.511719 161.820312 C 127.039062 175.636719 137.316406 188.65625 151.433594 198.433594 C 164.722656 207.652344 179.933594 212.941406 193.195312 212.941406 C 205.738281 212.941406 220.175781 207.441406 231.839844 198.222656 C 243.507812 189 250.589844 177.578125 250.777344 167.613281 C 250.777344 167.53125 250.777344 167.453125 250.75 167.375 Z M 230.457031 196.519531 C 219.164062 205.449219 205.234375 210.761719 193.167969 210.761719 C 168.425781 210.761719 134.175781 190.382812 124.585938 161.15625 C 115.613281 133.789062 118.726562 100.046875 145.921875 86.28125 C 146.160156 86.148438 146.398438 86.09375 146.640625 86.09375 C 147.066406 86.09375 147.4375 86.28125 147.679688 86.492188 C 147.863281 86.652344 148.449219 87.265625 148.105469 88.167969 C 142.433594 104.03125 141.953125 124.542969 151.992188 133.152344 C 162.21875 141.894531 191.4375 156.054688 192.6875 156.664062 C 192.796875 156.71875 192.929688 156.746094 193.035156 156.773438 L 231.335938 161.023438 C 231.386719 161.023438 231.414062 161.023438 231.46875 161.023438 L 247.207031 161.023438 L 248.566406 167.71875 C 248.328125 176.992188 241.5625 187.753906 230.457031 196.519531 Z M 230.457031 196.519531 " fill-opacity="1" fill-rule="nonzero"/></g><g clip-path="url(#41ecb174ee)"><path fill="#8f7a45" d="M 193.167969 213.5 C 179.824219 213.5 164.484375 208.1875 151.113281 198.914062 C 136.890625 189.054688 126.558594 175.929688 121.976562 162.007812 C 112.65625 133.550781 116.039062 98.316406 144.667969 83.835938 C 146.265625 83.039062 148.15625 83.277344 149.488281 84.449219 C 150.820312 85.617188 151.300781 87.398438 150.6875 89.097656 C 144.457031 106.554688 145.761719 124.195312 153.777344 131.078125 C 163.152344 139.101562 190.160156 152.386719 193.621094 154.089844 L 231.546875 158.285156 L 248.113281 158.285156 C 248.886719 158.285156 249.578125 158.84375 249.738281 159.589844 L 251.308594 167.265625 C 251.335938 167.398438 251.335938 167.53125 251.335938 167.640625 C 251.125 177.761719 243.957031 189.375 232.160156 198.671875 C 220.414062 207.945312 205.820312 213.5 193.167969 213.5 Z M 146.640625 84.449219 C 146.132812 84.449219 145.628906 84.554688 145.175781 84.792969 C 117.128906 99.007812 113.855469 133.628906 123.042969 161.660156 C 127.542969 175.371094 137.746094 188.285156 151.753906 198.007812 C 164.964844 207.148438 180.066406 212.410156 193.195312 212.410156 C 205.605469 212.410156 219.933594 206.964844 231.519531 197.824219 C 243.054688 188.710938 250.058594 177.417969 250.246094 167.613281 C 250.246094 167.558594 250.246094 167.53125 250.246094 167.507812 L 248.671875 159.828125 C 248.621094 159.5625 248.40625 159.402344 248.140625 159.402344 L 231.496094 159.402344 L 193.355469 155.152344 L 193.273438 155.097656 C 190.160156 153.582031 162.671875 140.085938 153.113281 131.902344 C 144.75 124.753906 143.3125 106.609375 149.703125 88.726562 C 150.15625 87.476562 149.808594 86.148438 148.796875 85.273438 C 148.15625 84.714844 147.414062 84.449219 146.640625 84.449219 Z M 193.167969 211.320312 C 168.238281 211.320312 133.722656 190.78125 124.054688 161.34375 C 115.027344 133.761719 118.195312 99.699219 145.65625 85.804688 C 146.425781 85.40625 147.386719 85.539062 148.023438 86.09375 C 148.53125 86.546875 148.957031 87.371094 148.609375 88.355469 C 143.019531 104.03125 142.484375 124.304688 152.339844 132.726562 C 162.566406 141.46875 191.675781 155.578125 192.902344 156.160156 C 192.957031 156.1875 193.007812 156.214844 193.089844 156.214844 L 231.386719 160.464844 C 231.414062 160.464844 231.414062 160.464844 231.441406 160.464844 L 247.632812 160.464844 L 249.097656 167.640625 L 249.097656 167.691406 C 248.859375 177.152344 242.015625 188.070312 230.773438 196.945312 C 219.429688 205.953125 205.339844 211.320312 193.167969 211.320312 Z M 146.640625 86.628906 C 146.480469 86.628906 146.320312 86.652344 146.160156 86.734375 C 119.261719 100.363281 116.222656 133.84375 125.121094 160.96875 C 134.628906 189.984375 168.613281 210.203125 193.167969 210.203125 C 205.101562 210.203125 218.921875 204.917969 230.136719 196.097656 C 241.082031 187.460938 247.765625 176.859375 248.035156 167.746094 L 246.78125 161.554688 L 231.496094 161.554688 C 231.441406 161.554688 231.386719 161.554688 231.335938 161.554688 L 193.035156 157.304688 C 192.847656 157.277344 192.664062 157.222656 192.503906 157.144531 C 191.277344 156.558594 162.035156 142.398438 151.699219 133.550781 C 141.417969 124.808594 141.871094 104.003906 147.597656 87.980469 C 147.8125 87.425781 147.464844 87.050781 147.304688 86.917969 C 147.226562 86.8125 146.984375 86.628906 146.640625 86.628906 Z M 146.640625 86.628906 " fill-opacity="1" fill-rule="nonzero"/></g><path fill="#000000" d="M 248.566406 167.691406 C 248.328125 176.992188 241.5625 187.753906 230.457031 196.519531 C 219.164062 205.449219 205.234375 210.761719 193.167969 210.761719 C 168.425781 210.761719 134.175781 190.382812 124.585938 161.15625 C 121.257812 151.007812 119.605469 140.007812 120.21875 129.429688 C 120.644531 137.214844 122.191406 145.027344 124.585938 152.386719 C 134.175781 181.617188 168.425781 201.996094 193.167969 201.996094 C 205.234375 201.996094 219.164062 196.679688 230.457031 187.753906 C 239.5625 180.550781 245.769531 171.996094 247.820312 164.027344 Z M 248.566406 167.691406 " fill-opacity="0.15" fill-rule="nonzero"/><path fill="#d6bc5d" d="M 185.019531 202.683594 C 184.804688 203.003906 183.019531 203.21875 180.597656 202.234375 C 178.175781 201.25 177.082031 199.84375 177.136719 199.46875 C 177.242188 199.335938 177.667969 199.203125 178.308594 199.203125 C 178.707031 199.203125 179.1875 199.257812 179.71875 199.363281 C 180.277344 199.46875 180.890625 199.65625 181.554688 199.921875 C 183.953125 200.933594 185.070312 202.339844 185.019531 202.683594 Z M 185.019531 202.683594 " fill-opacity="1" fill-rule="nonzero"/><path fill="#f7d4ac" d="M 200.011719 144.335938 C 200.011719 159.535156 187.628906 171.890625 172.394531 171.890625 C 157.160156 171.890625 144.777344 159.535156 144.777344 144.335938 C 144.777344 135.621094 148.878906 127.8125 155.242188 122.761719 C 155.480469 124.304688 155.535156 125.949219 155.347656 127.652344 C 155.296875 128.261719 155.722656 128.792969 156.335938 128.847656 C 156.359375 128.847656 156.414062 128.847656 156.441406 128.847656 C 157 128.847656 157.480469 128.421875 157.53125 127.863281 C 157.773438 125.550781 157.640625 123.347656 157.1875 121.328125 C 158.652344 120.34375 160.222656 119.519531 161.875 118.828125 C 162.300781 120.664062 162.433594 122.710938 162.21875 124.863281 C 162.167969 125.472656 162.59375 126.003906 163.207031 126.058594 C 163.257812 126.058594 163.285156 126.058594 163.3125 126.058594 C 163.871094 126.058594 164.351562 125.632812 164.40625 125.074219 C 164.644531 122.601562 164.484375 120.210938 163.953125 118.085938 C 166.613281 117.234375 169.464844 116.757812 172.394531 116.757812 C 187.601562 116.785156 200.011719 129.140625 200.011719 144.335938 Z M 200.011719 144.335938 " fill-opacity="1" fill-rule="nonzero"/><path fill="#000000" d="M 200.011719 144.335938 C 200.011719 159.535156 187.628906 171.890625 172.394531 171.890625 C 157.160156 171.890625 144.777344 159.535156 144.777344 144.335938 C 144.777344 143.382812 144.828125 142.425781 144.933594 141.496094 C 146.375 155.335938 158.144531 166.179688 172.394531 166.179688 C 186.644531 166.179688 198.414062 155.335938 199.878906 141.496094 C 199.960938 142.425781 200.011719 143.382812 200.011719 144.335938 Z M 200.011719 144.335938 " fill-opacity="0.15" fill-rule="nonzero"/><path fill="#bba695" d="M 187.414062 131.210938 C 186.804688 131.210938 186.296875 131.714844 186.324219 132.328125 C 186.351562 134.90625 185.363281 137.347656 183.472656 139.210938 C 181.289062 141.386719 178.09375 142.53125 174.550781 142.449219 C 173.9375 142.425781 173.433594 142.902344 173.433594 143.515625 C 173.40625 144.125 173.886719 144.628906 174.5 144.628906 C 174.632812 144.628906 174.765625 144.628906 174.925781 144.628906 C 178.917969 144.628906 182.515625 143.273438 185.046875 140.75 C 187.335938 138.492188 188.585938 135.464844 188.535156 132.273438 C 188.507812 131.691406 188.027344 131.210938 187.414062 131.210938 Z M 187.414062 131.210938 " fill-opacity="1" fill-rule="nonzero"/><path fill="#bba695" d="M 169.835938 146.730469 C 169.226562 146.730469 168.746094 147.234375 168.746094 147.84375 C 168.773438 150.421875 167.785156 152.867188 165.894531 154.726562 C 163.710938 156.90625 160.515625 158.046875 156.972656 157.96875 C 156.359375 157.941406 155.855469 158.417969 155.855469 159.03125 C 155.828125 159.640625 156.308594 160.148438 156.921875 160.148438 C 157.054688 160.148438 157.1875 160.148438 157.347656 160.148438 C 161.339844 160.148438 164.9375 158.792969 167.46875 156.265625 C 169.757812 154.007812 171.007812 150.980469 170.957031 147.792969 C 170.929688 147.207031 170.449219 146.730469 169.835938 146.730469 Z M 169.835938 146.730469 " fill-opacity="1" fill-rule="nonzero"/><path fill="#bba695" d="M 183.394531 153.292969 C 182.808594 153.398438 182.410156 153.980469 182.542969 154.566406 C 182.808594 155.976562 183.449219 160.625 179.984375 161.5 C 178.945312 161.765625 178.121094 161.660156 177.507812 161.183594 C 176.710938 160.546875 176.257812 159.269531 176.257812 157.648438 C 176.257812 157.039062 175.777344 156.558594 175.164062 156.53125 C 174.550781 156.53125 174.074219 157.011719 174.074219 157.621094 C 174.046875 159.960938 174.792969 161.847656 176.148438 162.910156 C 176.734375 163.363281 177.640625 163.839844 178.945312 163.839844 C 179.425781 163.839844 179.957031 163.785156 180.519531 163.628906 C 184.058594 162.722656 185.65625 159.082031 184.671875 154.140625 C 184.566406 153.582031 183.980469 153.183594 183.394531 153.292969 Z M 183.394531 153.292969 " fill-opacity="1" fill-rule="nonzero"/><path fill="#f7d4ac" d="M 143.761719 152.652344 C 142.085938 152.496094 140.78125 151.058594 140.78125 149.359375 C 140.78125 148.058594 141.527344 146.914062 142.644531 146.355469 C 142.777344 148.535156 143.175781 150.632812 143.761719 152.652344 Z M 143.761719 152.652344 " fill-opacity="1" fill-rule="nonzero"/><path fill="#000000" d="M 143.761719 152.652344 C 142.085938 152.496094 140.78125 151.058594 140.78125 149.359375 C 140.78125 148.058594 141.527344 146.914062 142.644531 146.355469 C 142.777344 148.535156 143.175781 150.632812 143.761719 152.652344 Z M 143.761719 152.652344 " fill-opacity="0.15" fill-rule="nonzero"/><path fill="#f7d4ac" d="M 187.894531 118.378906 C 187.894531 118.5625 187.867188 118.722656 187.84375 118.910156 C 186.03125 117.820312 184.085938 116.890625 182.0625 116.199219 C 182.675781 115.480469 183.582031 115.058594 184.566406 115.058594 C 186.402344 115.058594 187.894531 116.546875 187.894531 118.378906 Z M 187.894531 118.378906 " fill-opacity="1" fill-rule="nonzero"/><path fill="#fdfffe" d="M 259.246094 164.664062 C 259.246094 164.691406 259.21875 164.691406 259.21875 164.714844 C 258.527344 165.804688 256.984375 166.628906 255.089844 166.921875 C 251.789062 167.453125 248.113281 166.390625 245.105469 164.078125 C 245.742188 163.121094 246.300781 162.191406 246.808594 161.289062 C 246.863281 161.15625 246.941406 161.050781 246.996094 160.917969 C 248.21875 158.578125 249.234375 155.921875 249.898438 153.105469 C 253.28125 154.40625 257.515625 158.417969 258.980469 161.875 C 259.511719 163.097656 259.59375 164.078125 259.246094 164.664062 Z M 259.246094 164.664062 " fill-opacity="1" fill-rule="nonzero"/><path fill="#fdfffe" d="M 247.234375 154.40625 C 246.648438 156.347656 245.902344 158.207031 245.023438 159.90625 C 241.375 166.921875 232.800781 176.117188 223.957031 174.175781 C 223.929688 174.175781 223.929688 174.175781 223.902344 174.175781 C 222.972656 173.964844 222.011719 173.617188 221.082031 173.140625 C 218.445312 171.785156 216.792969 169.683594 216.152344 166.921875 C 214.953125 161.554688 217.832031 154.539062 220.148438 151.511719 C 220.519531 151.03125 220.414062 150.34375 219.933594 149.96875 C 219.457031 149.597656 218.761719 149.703125 218.390625 150.183594 C 216.285156 152.894531 212.476562 160.703125 213.996094 167.398438 C 214.316406 168.863281 214.875 170.136719 215.648438 171.28125 C 216.710938 172.847656 218.175781 174.121094 220.070312 175.078125 C 220.28125 175.183594 220.496094 175.292969 220.679688 175.371094 C 214.6875 177.710938 203.929688 179.675781 195.617188 178.558594 C 196.84375 177.445312 197.988281 176.273438 199.054688 175.050781 C 199.90625 174.070312 200.679688 173.03125 201.371094 171.96875 C 201.691406 171.464844 201.558594 170.773438 201.050781 170.457031 C 200.546875 170.136719 199.855469 170.269531 199.535156 170.773438 C 199.480469 170.882812 199.402344 170.960938 199.347656 171.066406 C 197.484375 173.804688 195.113281 176.25 192.554688 178.320312 C 192.476562 178.375 192.421875 178.425781 192.371094 178.480469 C 186.988281 182.785156 180.96875 185.335938 177.722656 185.363281 C 177.027344 185.363281 176.148438 185.253906 175.804688 184.722656 C 175.296875 183.953125 175.136719 183.078125 175.324219 182.09375 C 175.855469 179.4375 178.945312 175.984375 184.753906 171.464844 C 194.179688 167.160156 200.972656 158.101562 202.0625 147.394531 C 208.058594 146.410156 211.652344 142.238281 215.140625 138.226562 C 217.191406 135.863281 219.136719 133.601562 221.453125 132.167969 C 227.527344 128.394531 239.324219 127.171875 244.785156 133.761719 C 249.179688 138.996094 249.367188 147.261719 247.234375 154.40625 Z M 247.234375 154.40625 " fill-opacity="1" fill-rule="nonzero"/><path fill="#000000" d="M 247.234375 154.40625 C 246.648438 156.347656 245.902344 158.207031 245.023438 159.90625 C 241.375 166.921875 232.800781 176.117188 223.957031 174.175781 C 223.929688 174.175781 223.929688 174.175781 223.902344 174.175781 C 222.972656 173.964844 222.011719 173.617188 221.082031 173.140625 C 218.445312 171.785156 216.792969 169.683594 216.152344 166.921875 C 214.953125 161.554688 217.832031 154.539062 220.148438 151.511719 C 216.632812 156.292969 217.433594 166.203125 224.78125 168.464844 C 232.160156 170.722656 237.59375 167.558594 241.90625 162.988281 C 244.410156 160.359375 246.089844 157.277344 247.234375 154.40625 Z M 247.234375 154.40625 " fill-opacity="0.15" fill-rule="nonzero"/><path fill="#000000" d="M 220.707031 175.34375 C 214.714844 177.683594 203.957031 179.648438 195.644531 178.535156 C 196.871094 177.417969 198.015625 176.25 199.082031 175.027344 C 206.007812 175.183594 210.960938 173.804688 215.675781 171.253906 C 216.738281 172.820312 218.203125 174.097656 220.09375 175.050781 C 220.28125 175.160156 220.496094 175.265625 220.707031 175.34375 Z M 220.707031 175.34375 " fill-opacity="0.15" fill-rule="nonzero"/><path fill="#000000" d="M 199.375 171.039062 C 197.511719 173.777344 195.140625 176.222656 192.582031 178.292969 C 192.503906 178.347656 192.449219 178.402344 192.394531 178.453125 C 187.015625 182.757812 180.996094 185.308594 177.746094 185.335938 C 177.054688 185.335938 176.175781 185.230469 175.832031 184.699219 C 175.324219 183.925781 175.164062 183.050781 175.351562 182.066406 C 177.800781 183.289062 181.449219 182.625 185.710938 180.632812 C 190.558594 178.292969 197.484375 173.644531 199.375 171.039062 Z M 199.375 171.039062 " fill-opacity="0.15" fill-rule="nonzero"/><path fill="#000000" d="M 259.21875 164.714844 C 258.527344 165.804688 256.984375 166.628906 255.089844 166.921875 C 251.789062 167.453125 248.113281 166.390625 245.105469 164.078125 C 245.742188 163.121094 246.300781 162.191406 246.808594 161.289062 C 249.472656 164.210938 254 165.515625 259.21875 164.714844 Z M 259.21875 164.714844 " fill-opacity="0.15" fill-rule="nonzero"/><path fill="#baccce" d="M 261.003906 160.996094 C 259.378906 157.222656 254.664062 152.386719 250.324219 150.925781 C 251.441406 144.363281 250.671875 137.375 246.460938 132.273438 C 243.664062 128.875 239.085938 126.933594 233.597656 126.828125 C 228.859375 126.722656 223.878906 127.996094 220.28125 130.230469 C 217.671875 131.847656 215.539062 134.320312 213.464844 136.738281 C 210.347656 140.351562 207.125 144.046875 202.199219 145.082031 C 202.171875 145.851562 202.144531 146.597656 202.0625 147.339844 C 208.058594 146.355469 211.652344 142.183594 215.140625 138.171875 C 217.191406 135.808594 219.136719 133.550781 221.453125 132.113281 C 227.527344 128.34375 239.324219 127.121094 244.785156 133.710938 C 250.402344 140.511719 249.179688 152.042969 245.050781 159.933594 C 241.402344 166.949219 232.824219 176.140625 223.984375 174.203125 C 223.957031 174.203125 223.957031 174.203125 223.929688 174.203125 C 223 173.988281 222.039062 173.644531 221.105469 173.167969 C 218.46875 171.8125 216.820312 169.710938 216.179688 166.949219 C 214.980469 161.582031 217.859375 154.566406 220.175781 151.539062 C 220.546875 151.058594 220.441406 150.367188 219.960938 149.996094 C 219.484375 149.625 218.789062 149.730469 218.417969 150.210938 C 216.3125 152.917969 212.503906 160.730469 214.023438 167.425781 C 214.796875 170.882812 216.847656 173.457031 220.070312 175.105469 C 220.28125 175.210938 220.496094 175.316406 220.679688 175.398438 C 214.6875 177.734375 203.929688 179.703125 195.621094 178.585938 C 197.828125 176.59375 199.828125 174.363281 201.371094 171.996094 C 201.691406 171.492188 201.558594 170.800781 201.050781 170.484375 C 200.546875 170.164062 199.855469 170.296875 199.535156 170.800781 C 197.667969 173.671875 195.191406 176.195312 192.554688 178.347656 C 192.476562 178.402344 192.421875 178.453125 192.371094 178.507812 C 186.988281 182.8125 180.96875 185.363281 177.722656 185.386719 C 177.027344 185.386719 176.148438 185.28125 175.804688 184.75 C 173.914062 181.90625 176.761719 177.683594 184.726562 171.492188 C 182.914062 172.316406 180.996094 172.980469 179 173.433594 C 174.578125 177.496094 171.355469 182.015625 173.964844 185.972656 C 174.472656 186.71875 175.511719 187.59375 177.722656 187.59375 L 177.746094 187.59375 C 181.742188 187.59375 187.976562 184.777344 193.460938 180.472656 C 195.777344 180.949219 198.308594 181.136719 200.917969 181.136719 C 209.679688 181.136719 219.214844 178.824219 223.824219 176.433594 C 224.675781 176.59375 225.527344 176.699219 226.378906 176.699219 C 233.226562 176.699219 239.589844 171.492188 243.824219 165.9375 C 246.703125 168.117188 250.136719 169.3125 253.414062 169.3125 C 254.078125 169.3125 254.773438 169.261719 255.410156 169.152344 C 258.019531 168.753906 260.097656 167.558594 261.109375 165.886719 C 261.644531 164.957031 262.042969 163.441406 261.003906 160.996094 Z M 259.246094 164.664062 C 258.554688 165.78125 257.007812 166.601562 255.089844 166.921875 C 251.789062 167.453125 248.113281 166.390625 245.105469 164.078125 C 245.824219 163.015625 246.460938 161.925781 246.996094 160.917969 C 248.21875 158.578125 249.230469 155.921875 249.898438 153.105469 C 253.28125 154.40625 257.515625 158.417969 258.980469 161.875 C 259.511719 163.097656 259.59375 164.078125 259.246094 164.664062 Z M 259.246094 164.664062 " fill-opacity="1" fill-rule="nonzero"/><g clip-path="url(#b6edf27762)"><path fill="#baccce" d="M 177.746094 188.046875 C 175.269531 188.046875 174.074219 187.035156 173.511719 186.183594 C 171.144531 182.625 172.820312 178.292969 178.625 172.953125 L 178.734375 172.847656 L 178.867188 172.820312 C 180.785156 172.394531 182.675781 171.757812 184.484375 170.933594 L 188.746094 168.996094 L 185.070312 171.835938 C 177.480469 177.734375 174.605469 181.855469 176.257812 184.351562 C 176.417969 184.589844 176.976562 184.75 177.722656 184.75 C 180.652344 184.75 186.484375 182.4375 192.023438 178.027344 C 192.101562 177.949219 192.183594 177.894531 192.261719 177.84375 C 195.085938 175.558594 197.375 173.058594 199.109375 170.457031 C 199.347656 170.082031 199.71875 169.84375 200.148438 169.738281 C 200.574219 169.660156 201.027344 169.738281 201.398438 169.976562 C 201.773438 170.214844 202.011719 170.589844 202.117188 171.015625 C 202.199219 171.4375 202.117188 171.890625 201.878906 172.234375 C 200.574219 174.253906 198.894531 176.222656 196.898438 178.132812 C 204.273438 178.878906 213.515625 177.3125 219.347656 175.292969 C 216.234375 173.539062 214.289062 170.933594 213.515625 167.507812 C 211.972656 160.597656 215.886719 152.628906 218.019531 149.835938 C 218.285156 149.492188 218.683594 149.253906 219.109375 149.199219 C 219.535156 149.148438 219.988281 149.253906 220.335938 149.519531 C 220.679688 149.785156 220.921875 150.183594 220.972656 150.609375 C 221.027344 151.03125 220.921875 151.484375 220.65625 151.832031 C 218.390625 154.78125 215.566406 161.582031 216.738281 166.789062 C 217.324219 169.394531 218.898438 171.359375 221.375 172.632812 C 222.226562 173.085938 223.15625 173.40625 224.089844 173.617188 C 224.089844 173.617188 224.117188 173.617188 224.144531 173.617188 C 232.800781 175.53125 241.109375 166.3125 244.597656 159.640625 C 248.644531 151.910156 249.871094 140.617188 244.386719 134 C 239.136719 127.652344 227.660156 128.847656 221.773438 132.515625 C 219.507812 133.921875 217.589844 136.128906 215.566406 138.464844 C 212.023438 142.558594 208.351562 146.808594 202.171875 147.816406 L 201.453125 147.925781 L 201.53125 147.207031 C 201.613281 146.464844 201.664062 145.71875 201.664062 145 L 201.664062 144.578125 L 202.089844 144.496094 C 206.859375 143.515625 210 139.847656 213.0625 136.339844 C 215.167969 133.921875 217.324219 131.398438 220.015625 129.722656 C 223.691406 127.4375 228.804688 126.136719 233.652344 126.242188 C 239.296875 126.375 244.011719 128.367188 246.914062 131.902344 C 250.722656 136.5 252.160156 143.113281 250.964844 150.554688 C 255.410156 152.28125 259.964844 157.144531 261.511719 160.785156 C 262.65625 163.441406 262.175781 165.140625 261.589844 166.097656 C 260.472656 167.90625 258.261719 169.207031 255.492188 169.632812 C 254.796875 169.738281 254.105469 169.792969 253.386719 169.792969 C 250.136719 169.792969 246.78125 168.675781 243.90625 166.628906 C 241.1875 170.109375 234.636719 177.152344 226.378906 177.152344 C 225.582031 177.152344 224.730469 177.070312 223.902344 176.914062 C 219.375 179.199219 209.867188 181.589844 200.917969 181.589844 C 198.253906 181.589844 195.804688 181.375 193.59375 180.949219 C 188.054688 185.28125 181.847656 188.046875 177.746094 188.046875 Z M 179.265625 173.855469 C 174.019531 178.71875 172.421875 182.570312 174.417969 185.601562 C 175.03125 186.503906 176.148438 186.984375 177.722656 186.984375 C 181.609375 186.984375 187.789062 184.167969 193.089844 179.996094 L 193.273438 179.835938 L 193.515625 179.886719 C 195.699219 180.339844 198.175781 180.550781 200.867188 180.550781 C 209.761719 180.550781 219.191406 178.160156 223.503906 175.902344 L 223.664062 175.824219 L 223.851562 175.851562 C 224.675781 176.007812 225.5 176.089844 226.300781 176.089844 C 234.425781 176.089844 240.894531 168.730469 243.292969 165.539062 L 243.613281 165.117188 L 244.039062 165.433594 C 246.835938 167.535156 250.109375 168.703125 253.308594 168.703125 C 253.945312 168.703125 254.613281 168.648438 255.226562 168.542969 C 257.675781 168.171875 259.59375 167.054688 260.550781 165.515625 C 261.003906 164.769531 261.351562 163.441406 260.390625 161.210938 C 258.875 157.675781 254.371094 152.917969 250.058594 151.433594 L 249.605469 151.273438 L 249.683594 150.820312 C 250.9375 143.515625 249.605469 137.058594 245.929688 132.621094 C 243.214844 129.351562 238.820312 127.492188 233.492188 127.359375 C 228.859375 127.253906 223.984375 128.5 220.46875 130.679688 C 217.910156 132.273438 215.808594 134.71875 213.78125 137.082031 C 210.695312 140.644531 207.523438 144.335938 202.648438 145.507812 C 202.625 145.878906 202.625 146.277344 202.597656 146.648438 C 207.976562 145.480469 211.359375 141.574219 214.636719 137.773438 C 216.710938 135.355469 218.683594 133.097656 221.082031 131.609375 C 227.3125 127.730469 239.484375 126.507812 245.128906 133.3125 C 250.910156 140.296875 249.660156 152.097656 245.476562 160.148438 C 241.828125 167.109375 233.066406 176.726562 223.796875 174.679688 C 223.796875 174.679688 223.769531 174.679688 223.742188 174.679688 C 222.730469 174.441406 221.746094 174.097656 220.789062 173.589844 C 217.992188 172.15625 216.261719 169.949219 215.59375 167 C 214.34375 161.476562 217.296875 154.273438 219.695312 151.140625 C 219.777344 151.03125 219.828125 150.875 219.800781 150.742188 C 219.777344 150.609375 219.695312 150.476562 219.589844 150.367188 C 219.484375 150.289062 219.324219 150.234375 219.191406 150.261719 C 219.054688 150.289062 218.921875 150.367188 218.816406 150.476562 C 216.765625 153.132812 213.039062 160.730469 214.503906 167.242188 C 215.246094 170.507812 217.191406 172.980469 220.28125 174.574219 C 220.441406 174.652344 220.574219 174.734375 220.734375 174.785156 L 222.039062 175.398438 L 220.867188 175.851562 C 214.742188 178.242188 203.769531 180.179688 195.539062 179.066406 L 194.367188 178.90625 L 195.246094 178.109375 C 197.5625 176.007812 199.453125 173.832031 200.917969 171.625 C 201 171.492188 201.027344 171.359375 201 171.226562 C 200.972656 171.09375 200.890625 170.960938 200.757812 170.882812 C 200.625 170.800781 200.492188 170.773438 200.359375 170.800781 C 200.226562 170.828125 200.09375 170.90625 200.011719 171.039062 C 198.230469 173.75 195.832031 176.328125 192.929688 178.691406 L 192.875 178.746094 C 192.847656 178.773438 192.824219 178.800781 192.796875 178.824219 L 192.742188 178.878906 C 187.683594 182.917969 181.371094 185.867188 177.746094 185.867188 C 176.550781 185.867188 175.75 185.574219 175.351562 184.988281 C 173.488281 182.199219 175.457031 178.507812 181.691406 173.191406 C 180.890625 173.433594 180.066406 173.644531 179.265625 173.855469 Z M 253.386719 167.585938 C 250.457031 167.585938 247.394531 166.496094 244.757812 164.503906 L 244.359375 164.183594 L 244.652344 163.761719 C 245.34375 162.75 245.957031 161.6875 246.515625 160.652344 C 247.742188 158.3125 248.726562 155.65625 249.367188 152.972656 L 249.5 152.363281 L 250.085938 152.574219 C 253.679688 153.957031 257.96875 158.101562 259.484375 161.632812 C 260.097656 163.042969 260.179688 164.210938 259.726562 164.929688 C 258.953125 166.179688 257.25 167.109375 255.171875 167.425781 C 254.585938 167.53125 253.972656 167.585938 253.386719 167.585938 Z M 245.824219 163.945312 C 248.671875 165.964844 251.976562 166.84375 254.984375 166.363281 C 256.769531 166.097656 258.179688 165.355469 258.765625 164.371094 C 259.007812 163.972656 258.898438 163.097656 258.449219 162.058594 C 257.140625 159.003906 253.414062 155.3125 250.246094 153.824219 C 249.578125 156.375 248.621094 158.898438 247.449219 161.128906 C 246.96875 162.085938 246.4375 163.015625 245.824219 163.945312 Z M 245.824219 163.945312 " fill-opacity="1" fill-rule="nonzero"/></g><path fill="#b3a693" d="M 202.199219 144.335938 C 202.199219 144.070312 202.199219 143.78125 202.171875 143.515625 C 202.171875 143.382812 202.171875 143.273438 202.171875 143.140625 C 202.171875 142.957031 202.144531 142.769531 202.144531 142.609375 C 202.144531 142.53125 202.144531 142.449219 202.117188 142.371094 C 202.117188 142.132812 202.089844 141.917969 202.0625 141.707031 C 202.0625 141.652344 202.0625 141.574219 202.039062 141.519531 C 202.011719 141.253906 201.984375 140.988281 201.957031 140.75 C 201.90625 140.191406 201.796875 139.609375 201.691406 139.050781 C 201.664062 138.917969 201.636719 138.757812 201.613281 138.625 C 201.585938 138.464844 201.558594 138.28125 201.503906 138.121094 C 201.503906 138.066406 201.480469 137.988281 201.453125 137.933594 C 201.398438 137.667969 201.320312 137.402344 201.265625 137.136719 C 201.210938 136.898438 201.132812 136.632812 201.078125 136.394531 C 201.050781 136.339844 201.050781 136.261719 201.027344 136.207031 C 200.945312 135.941406 200.867188 135.675781 200.785156 135.4375 C 200.707031 135.144531 200.597656 134.878906 200.519531 134.613281 C 200.441406 134.347656 200.332031 134.109375 200.253906 133.867188 C 200.226562 133.816406 200.226562 133.761719 200.199219 133.734375 C 200.121094 133.496094 200.011719 133.285156 199.933594 133.046875 C 199.933594 133.019531 199.90625 132.992188 199.90625 132.964844 C 199.800781 132.699219 199.695312 132.460938 199.585938 132.195312 C 199.585938 132.195312 199.585938 132.167969 199.5625 132.167969 C 199.453125 131.929688 199.320312 131.664062 199.214844 131.425781 C 199.082031 131.160156 198.949219 130.894531 198.816406 130.652344 C 198.683594 130.386719 198.546875 130.148438 198.390625 129.882812 C 198.257812 129.644531 198.097656 129.378906 197.964844 129.140625 C 197.671875 128.632812 197.351562 128.15625 197.03125 127.679688 C 195.058594 124.808594 192.609375 122.3125 189.785156 120.292969 C 190 119.707031 190.105469 119.097656 190.105469 118.484375 C 190.105469 115.457031 187.628906 112.957031 184.59375 112.957031 C 182.648438 112.957031 180.863281 113.996094 179.878906 115.613281 C 179.585938 115.535156 179.292969 115.480469 179 115.402344 C 178.734375 115.347656 178.46875 115.296875 178.199219 115.242188 C 178.121094 115.214844 178.066406 115.214844 177.988281 115.191406 C 177.722656 115.136719 177.457031 115.082031 177.1875 115.058594 C 176.894531 115.003906 176.628906 114.976562 176.335938 114.925781 C 176.042969 114.871094 175.722656 114.84375 175.429688 114.816406 C 175.246094 114.792969 175.058594 114.792969 174.84375 114.765625 C 174.820312 114.765625 174.792969 114.765625 174.738281 114.765625 C 174.234375 114.710938 173.726562 114.710938 173.21875 114.683594 C 172.953125 114.683594 172.714844 114.683594 172.449219 114.683594 C 172.128906 114.683594 171.78125 114.683594 171.460938 114.710938 C 171.410156 114.710938 171.355469 114.710938 171.328125 114.710938 C 171.167969 114.710938 171.011719 114.738281 170.851562 114.738281 C 170.796875 114.738281 170.742188 114.738281 170.691406 114.738281 C 170.371094 114.765625 170.078125 114.792969 169.757812 114.816406 C 169.519531 114.84375 169.277344 114.871094 169.066406 114.898438 C 168.878906 114.925781 168.691406 114.949219 168.507812 114.976562 C 168.320312 115.003906 168.132812 115.03125 167.945312 115.058594 C 167.761719 115.082031 167.574219 115.109375 167.386719 115.136719 C 167.199219 115.164062 167.015625 115.191406 166.828125 115.242188 C 166.640625 115.269531 166.457031 115.324219 166.269531 115.347656 C 165.976562 115.402344 165.683594 115.480469 165.390625 115.5625 C 165.257812 115.589844 165.125 115.613281 164.992188 115.667969 C 164.855469 115.695312 164.722656 115.722656 164.617188 115.773438 C 164.484375 115.800781 164.351562 115.855469 164.21875 115.878906 C 164.113281 115.90625 164.003906 115.933594 163.898438 115.988281 C 163.710938 116.039062 163.527344 116.09375 163.367188 116.144531 C 163.339844 116.121094 163.339844 116.09375 163.3125 116.039062 C 162.378906 113.753906 160.996094 111.84375 159.183594 110.433594 C 158.703125 110.0625 158.011719 110.140625 157.640625 110.621094 C 157.265625 111.097656 157.347656 111.789062 157.828125 112.160156 C 159.34375 113.328125 160.515625 114.949219 161.289062 116.863281 C 160.890625 117.023438 160.488281 117.210938 160.089844 117.394531 C 160.0625 117.394531 160.0625 117.421875 160.035156 117.421875 C 159.503906 117.660156 158.972656 117.925781 158.464844 118.21875 C 158.410156 118.246094 158.359375 118.273438 158.304688 118.296875 C 158.117188 118.40625 157.960938 118.484375 157.773438 118.589844 C 157.585938 118.695312 157.398438 118.804688 157.214844 118.910156 C 157.027344 119.015625 156.839844 119.148438 156.652344 119.253906 C 156.628906 119.203125 156.601562 119.121094 156.574219 119.070312 C 155.667969 116.679688 154.230469 114.632812 152.339844 113.195312 C 151.859375 112.824219 151.167969 112.90625 150.796875 113.382812 C 150.421875 113.863281 150.503906 114.550781 150.980469 114.925781 C 152.710938 116.253906 153.992188 118.191406 154.738281 120.503906 C 154.738281 120.503906 154.738281 120.503906 154.738281 120.53125 C 154.523438 120.691406 154.3125 120.847656 154.097656 121.035156 C 154.042969 121.0625 153.992188 121.113281 153.9375 121.167969 C 153.726562 121.355469 153.484375 121.511719 153.273438 121.699219 C 153.085938 121.859375 152.925781 121.992188 152.738281 122.152344 C 152.554688 122.3125 152.367188 122.46875 152.207031 122.628906 C 152.179688 122.65625 152.152344 122.683594 152.125 122.710938 C 151.992188 122.84375 151.859375 122.976562 151.726562 123.109375 C 151.460938 123.375 151.195312 123.640625 150.929688 123.90625 C 150.742188 124.089844 150.554688 124.304688 150.367188 124.488281 C 150.367188 124.488281 150.34375 124.515625 150.34375 124.515625 C 146.375 128.898438 143.683594 134.453125 142.886719 140.589844 C 142.726562 141.761719 142.644531 142.957031 142.644531 144.152344 C 140.300781 144.816406 138.648438 146.941406 138.648438 149.4375 C 138.648438 152.46875 141.128906 154.9375 144.191406 154.9375 C 144.324219 154.9375 144.457031 154.9375 144.589844 154.914062 C 145.121094 156.320312 145.761719 157.675781 146.480469 158.949219 C 146.933594 159.75 147.4375 160.546875 147.945312 161.289062 C 148.265625 161.742188 148.585938 162.191406 148.929688 162.617188 C 149.039062 162.75 149.171875 162.910156 149.277344 163.042969 C 149.382812 163.175781 149.488281 163.308594 149.597656 163.441406 C 149.625 163.46875 149.648438 163.496094 149.648438 163.519531 C 149.757812 163.652344 149.863281 163.761719 149.96875 163.894531 C 150.101562 164.027344 150.210938 164.160156 150.34375 164.316406 C 150.582031 164.582031 150.847656 164.847656 151.113281 165.117188 C 151.246094 165.25 151.382812 165.382812 151.515625 165.515625 C 151.78125 165.78125 152.046875 166.019531 152.3125 166.285156 C 152.417969 166.390625 152.527344 166.46875 152.632812 166.578125 C 153.246094 167.109375 153.859375 167.613281 154.496094 168.117188 C 154.628906 168.222656 154.761719 168.304688 154.898438 168.410156 C 155.03125 168.515625 155.191406 168.621094 155.324219 168.730469 C 155.882812 169.128906 156.46875 169.5 157.054688 169.84375 C 157.214844 169.949219 157.375 170.03125 157.535156 170.136719 C 158.4375 170.667969 159.398438 171.148438 160.355469 171.570312 C 160.515625 171.652344 160.703125 171.730469 160.890625 171.8125 C 161.101562 171.890625 161.316406 171.996094 161.527344 172.078125 C 161.554688 172.078125 161.582031 172.101562 161.582031 172.101562 C 161.769531 172.183594 161.980469 172.261719 162.167969 172.316406 C 162.671875 172.5 163.179688 172.660156 163.710938 172.847656 C 163.925781 172.898438 164.113281 172.980469 164.324219 173.03125 C 164.75 173.167969 165.175781 173.273438 165.601562 173.351562 C 165.738281 173.378906 165.871094 173.40625 166.003906 173.433594 C 166.242188 173.484375 166.457031 173.539062 166.695312 173.566406 C 167.121094 173.644531 167.519531 173.722656 167.945312 173.777344 C 167.972656 173.777344 168 173.777344 168.027344 173.777344 C 168.214844 173.804688 168.425781 173.832031 168.640625 173.855469 C 168.800781 173.882812 168.984375 173.910156 169.144531 173.910156 C 169.277344 173.9375 169.410156 173.9375 169.546875 173.964844 C 169.597656 173.964844 169.652344 173.964844 169.703125 173.988281 C 169.863281 174.015625 170.023438 174.015625 170.210938 174.042969 C 170.449219 174.070312 170.71875 174.070312 170.957031 174.097656 C 171.195312 174.121094 171.4375 174.121094 171.675781 174.121094 C 171.941406 174.121094 172.207031 174.121094 172.476562 174.121094 C 172.742188 174.121094 172.980469 174.121094 173.246094 174.121094 C 173.488281 174.121094 173.726562 174.097656 173.964844 174.097656 L 174.019531 174.097656 C 174.152344 174.097656 174.285156 174.070312 174.445312 174.070312 C 174.632812 174.042969 174.820312 174.042969 175.03125 174.015625 C 176.417969 173.882812 177.800781 173.671875 179.132812 173.378906 C 181.128906 172.925781 183.046875 172.289062 184.859375 171.4375 C 184.859375 171.4375 184.886719 171.4375 184.886719 171.414062 C 187.230469 170.324219 189.441406 168.96875 191.410156 167.347656 C 191.652344 167.132812 191.890625 166.949219 192.128906 166.734375 C 193.089844 165.886719 193.996094 164.984375 194.847656 164.027344 C 195.058594 163.785156 195.273438 163.546875 195.460938 163.308594 C 195.460938 163.308594 195.484375 163.28125 195.484375 163.28125 C 195.671875 163.042969 195.859375 162.804688 196.046875 162.566406 C 196.230469 162.324219 196.445312 162.058594 196.632812 161.792969 C 196.738281 161.660156 196.816406 161.527344 196.898438 161.394531 C 197.085938 161.128906 197.269531 160.835938 197.457031 160.570312 C 197.535156 160.4375 197.617188 160.332031 197.695312 160.199219 C 198.65625 158.710938 199.453125 157.117188 200.121094 155.46875 C 200.171875 155.3125 200.253906 155.179688 200.308594 155.019531 C 200.414062 154.726562 200.546875 154.40625 200.652344 154.113281 C 200.707031 153.957031 200.757812 153.796875 200.8125 153.664062 C 200.917969 153.34375 201.027344 153.050781 201.105469 152.734375 C 201.132812 152.601562 201.183594 152.496094 201.210938 152.363281 C 201.34375 151.910156 201.453125 151.429688 201.558594 150.953125 C 201.613281 150.765625 201.636719 150.609375 201.664062 150.421875 C 201.746094 150.023438 201.824219 149.597656 201.90625 149.199219 C 201.929688 148.960938 201.984375 148.746094 202.011719 148.507812 C 202.039062 148.269531 202.066406 148.03125 202.089844 147.792969 C 202.117188 147.660156 202.117188 147.527344 202.144531 147.367188 C 202.222656 146.621094 202.277344 145.878906 202.277344 145.109375 C 202.199219 144.816406 202.199219 144.578125 202.199219 144.335938 Z M 140.78125 149.359375 C 140.78125 148.058594 141.527344 146.914062 142.644531 146.382812 C 142.777344 148.5625 143.175781 150.660156 143.761719 152.679688 C 142.085938 152.496094 140.78125 151.058594 140.78125 149.359375 Z M 184.566406 115.058594 C 186.402344 115.058594 187.894531 116.546875 187.894531 118.378906 C 187.894531 118.5625 187.867188 118.722656 187.84375 118.910156 C 187.601562 118.75 187.335938 118.617188 187.070312 118.457031 C 186.855469 118.351562 186.671875 118.21875 186.457031 118.113281 C 186.21875 117.980469 186.003906 117.875 185.765625 117.765625 C 185.738281 117.765625 185.710938 117.742188 185.710938 117.742188 C 184.539062 117.15625 183.3125 116.652344 182.0625 116.199219 C 182.675781 115.507812 183.582031 115.058594 184.566406 115.058594 Z M 172.394531 171.890625 C 157.160156 171.890625 144.777344 159.535156 144.777344 144.335938 C 144.777344 135.621094 148.878906 127.8125 155.242188 122.761719 C 155.480469 124.304688 155.535156 125.949219 155.347656 127.652344 C 155.296875 128.261719 155.722656 128.792969 156.335938 128.847656 C 156.359375 128.847656 156.414062 128.847656 156.441406 128.847656 C 157 128.847656 157.480469 128.421875 157.53125 127.863281 C 157.773438 125.550781 157.640625 123.347656 157.1875 121.328125 C 158.652344 120.34375 160.222656 119.519531 161.875 118.828125 C 162.300781 120.664062 162.433594 122.710938 162.21875 124.863281 C 162.167969 125.472656 162.59375 126.003906 163.207031 126.058594 C 163.257812 126.058594 163.285156 126.058594 163.3125 126.058594 C 163.871094 126.058594 164.351562 125.632812 164.40625 125.074219 C 164.644531 122.601562 164.484375 120.210938 163.953125 118.085938 C 166.613281 117.234375 169.464844 116.757812 172.394531 116.757812 C 187.628906 116.757812 200.011719 129.113281 200.011719 144.3125 C 200.011719 159.507812 187.601562 171.890625 172.394531 171.890625 Z M 172.394531 171.890625 " fill-opacity="1" fill-rule="nonzero"/><path fill="#b3a693" d="M 172.394531 174.628906 C 172.128906 174.628906 171.835938 174.628906 171.570312 174.628906 C 171.328125 174.628906 171.089844 174.601562 170.824219 174.601562 C 170.582031 174.601562 170.316406 174.574219 170.050781 174.546875 C 169.890625 174.546875 169.703125 174.519531 169.519531 174.496094 C 169.464844 174.496094 169.410156 174.496094 169.332031 174.46875 C 169.226562 174.46875 169.066406 174.441406 168.933594 174.414062 C 168.773438 174.414062 168.585938 174.386719 168.398438 174.363281 C 168.214844 174.335938 168 174.308594 167.785156 174.28125 L 167.734375 174.28125 C 167.253906 174.203125 166.855469 174.121094 166.429688 174.042969 C 166.1875 173.988281 165.976562 173.964844 165.734375 173.910156 C 165.601562 173.882812 165.46875 173.855469 165.335938 173.804688 C 164.910156 173.699219 164.457031 173.589844 164.058594 173.457031 C 163.84375 173.40625 163.632812 173.324219 163.417969 173.273438 C 162.886719 173.113281 162.355469 172.925781 161.847656 172.742188 C 161.742188 172.6875 161.609375 172.660156 161.5 172.609375 L 161.207031 172.5 C 160.96875 172.421875 160.753906 172.316406 160.542969 172.234375 C 160.355469 172.15625 160.195312 172.078125 160.011719 171.996094 C 159.050781 171.570312 158.09375 171.066406 157.132812 170.535156 C 156.972656 170.429688 156.8125 170.347656 156.652344 170.242188 C 156.042969 169.871094 155.457031 169.5 154.921875 169.101562 L 154.761719 168.996094 C 154.65625 168.914062 154.550781 168.835938 154.445312 168.78125 C 154.335938 168.703125 154.203125 168.597656 154.070312 168.515625 C 153.40625 168.011719 152.765625 167.480469 152.152344 166.949219 C 152.046875 166.867188 151.941406 166.761719 151.832031 166.65625 C 151.539062 166.390625 151.273438 166.152344 151.007812 165.886719 C 150.875 165.753906 150.742188 165.621094 150.609375 165.488281 C 150.34375 165.222656 150.074219 164.957031 149.835938 164.664062 C 149.703125 164.53125 149.597656 164.398438 149.464844 164.238281 C 149.355469 164.105469 149.25 164 149.144531 163.867188 L 149.0625 163.785156 C 148.957031 163.652344 148.851562 163.519531 148.742188 163.386719 L 148.398438 162.964844 C 148.050781 162.511719 147.707031 162.058594 147.386719 161.609375 C 146.851562 160.835938 146.347656 160.039062 145.867188 159.214844 C 145.175781 157.996094 144.589844 156.746094 144.082031 155.46875 C 144.082031 155.46875 144.054688 155.46875 144.054688 155.46875 C 140.699219 155.46875 137.984375 152.761719 137.984375 149.414062 C 137.984375 146.808594 139.582031 144.578125 141.980469 143.699219 C 142.003906 142.609375 142.085938 141.519531 142.21875 140.457031 C 143.019531 134.347656 145.628906 128.6875 149.78125 124.089844 C 149.808594 124.0625 149.808594 124.039062 149.835938 124.011719 C 149.996094 123.824219 150.183594 123.640625 150.367188 123.425781 C 150.609375 123.160156 150.875 122.894531 151.167969 122.628906 C 151.300781 122.496094 151.433594 122.363281 151.566406 122.257812 C 151.59375 122.230469 151.648438 122.203125 151.671875 122.152344 C 151.832031 121.992188 152.019531 121.832031 152.207031 121.648438 C 152.394531 121.488281 152.550781 121.328125 152.738281 121.167969 C 152.953125 120.980469 153.191406 120.796875 153.40625 120.609375 C 153.457031 120.558594 153.511719 120.503906 153.589844 120.476562 C 153.699219 120.398438 153.804688 120.316406 153.910156 120.238281 C 153.164062 118.164062 151.964844 116.4375 150.449219 115.269531 C 149.730469 114.710938 149.597656 113.675781 150.15625 112.957031 C 150.421875 112.613281 150.820312 112.398438 151.246094 112.320312 C 151.671875 112.265625 152.125 112.375 152.472656 112.640625 C 154.285156 114.046875 155.75 115.988281 156.707031 118.324219 C 156.894531 118.21875 157.082031 118.113281 157.292969 117.980469 C 157.480469 117.875 157.667969 117.765625 157.824219 117.6875 L 157.851562 117.660156 C 157.878906 117.660156 157.90625 117.632812 157.933594 117.632812 L 157.984375 117.609375 C 158.519531 117.316406 159.078125 117.050781 159.582031 116.8125 L 159.636719 116.785156 C 159.902344 116.679688 160.144531 116.570312 160.355469 116.464844 C 159.609375 114.816406 158.570312 113.460938 157.292969 112.480469 C 156.574219 111.921875 156.441406 110.886719 157 110.167969 C 157.558594 109.449219 158.597656 109.316406 159.316406 109.875 C 161.074219 111.230469 162.488281 113.117188 163.472656 115.347656 C 163.5 115.347656 163.527344 115.324219 163.550781 115.324219 L 163.605469 115.296875 C 163.710938 115.269531 163.792969 115.242188 163.898438 115.214844 C 164.003906 115.191406 164.164062 115.136719 164.296875 115.109375 C 164.429688 115.082031 164.539062 115.03125 164.671875 115.003906 C 164.832031 114.976562 164.964844 114.925781 165.097656 114.898438 C 165.363281 114.816406 165.683594 114.765625 165.976562 114.683594 C 166.164062 114.660156 166.347656 114.605469 166.535156 114.578125 C 166.722656 114.550781 166.910156 114.5 167.09375 114.472656 C 167.28125 114.445312 167.496094 114.394531 167.679688 114.367188 C 167.839844 114.339844 168.027344 114.3125 168.214844 114.285156 C 168.398438 114.261719 168.585938 114.234375 168.746094 114.207031 L 168.800781 114.207031 C 169.039062 114.179688 169.277344 114.152344 169.519531 114.128906 C 169.839844 114.101562 170.132812 114.074219 170.449219 114.046875 L 170.476562 114.046875 C 170.503906 114.046875 170.558594 114.046875 170.582031 114.046875 L 171.089844 114.019531 C 171.144531 114.019531 171.195312 114.019531 171.25 114.019531 C 171.808594 113.996094 172.421875 113.996094 173.035156 114.019531 C 173.539062 114.019531 174.046875 114.046875 174.578125 114.101562 C 174.632812 114.101562 174.660156 114.101562 174.710938 114.101562 C 174.898438 114.101562 175.085938 114.128906 175.269531 114.152344 C 175.589844 114.179688 175.882812 114.234375 176.203125 114.261719 C 176.496094 114.285156 176.789062 114.339844 177.082031 114.394531 C 177.347656 114.445312 177.640625 114.472656 177.90625 114.527344 C 177.960938 114.527344 178.042969 114.550781 178.121094 114.578125 C 178.386719 114.632812 178.628906 114.683594 178.894531 114.738281 L 178.921875 114.738281 C 179.105469 114.765625 179.265625 114.816406 179.453125 114.871094 C 180.597656 113.277344 182.460938 112.292969 184.433594 112.292969 C 187.789062 112.292969 190.503906 115.003906 190.503906 118.351562 C 190.503906 118.882812 190.425781 119.441406 190.292969 119.945312 C 193.035156 121.964844 195.40625 124.4375 197.351562 127.253906 C 197.695312 127.757812 198.015625 128.261719 198.308594 128.742188 C 198.46875 129.007812 198.601562 129.246094 198.761719 129.511719 C 198.921875 129.777344 199.054688 130.042969 199.1875 130.28125 C 199.320312 130.546875 199.453125 130.8125 199.585938 131.078125 C 199.722656 131.34375 199.828125 131.582031 199.960938 131.847656 L 199.988281 131.902344 C 200.09375 132.167969 200.199219 132.40625 200.308594 132.671875 C 200.332031 132.699219 200.332031 132.753906 200.359375 132.78125 C 200.441406 132.992188 200.546875 133.230469 200.625 133.46875 L 200.679688 133.628906 C 200.785156 133.867188 200.867188 134.132812 200.945312 134.398438 C 201.050781 134.664062 201.132812 134.957031 201.238281 135.25 C 201.320312 135.515625 201.398438 135.78125 201.480469 136.046875 C 201.503906 136.101562 201.503906 136.179688 201.53125 136.261719 C 201.613281 136.5 201.664062 136.765625 201.71875 137.003906 C 201.773438 137.269531 201.851562 137.535156 201.90625 137.800781 C 201.929688 137.882812 201.929688 137.933594 201.957031 138.015625 C 201.984375 138.148438 202.039062 138.332031 202.066406 138.492188 C 202.089844 138.625 202.117188 138.785156 202.144531 138.917969 C 202.25 139.5 202.332031 140.085938 202.410156 140.617188 C 202.4375 140.882812 202.464844 141.148438 202.492188 141.414062 C 202.492188 141.46875 202.515625 141.546875 202.515625 141.601562 C 202.542969 141.8125 202.542969 142.027344 202.570312 142.238281 C 202.570312 142.316406 202.597656 142.425781 202.597656 142.503906 C 202.625 142.691406 202.625 142.875 202.625 143.0625 C 202.625 143.167969 202.625 143.300781 202.625 143.460938 C 202.625 143.515625 202.625 143.566406 202.625 143.621094 L 202.652344 143.59375 L 202.625 145 C 202.597656 145.773438 202.570312 146.542969 202.492188 147.3125 C 202.464844 147.472656 202.464844 147.605469 202.4375 147.738281 C 202.410156 147.976562 202.382812 148.214844 202.359375 148.480469 C 202.332031 148.722656 202.304688 148.933594 202.25 149.171875 C 202.171875 149.597656 202.117188 150.023438 202.011719 150.421875 C 201.984375 150.609375 201.929688 150.792969 201.90625 150.980469 C 201.796875 151.40625 201.691406 151.855469 201.53125 152.386719 L 201.476562 152.574219 C 201.453125 152.652344 201.453125 152.707031 201.425781 152.785156 C 201.34375 153.105469 201.238281 153.425781 201.132812 153.742188 L 201.105469 153.824219 C 201.050781 153.957031 201.027344 154.089844 200.972656 154.222656 C 200.867188 154.539062 200.757812 154.832031 200.625 155.152344 L 200.597656 155.257812 C 200.546875 155.390625 200.492188 155.496094 200.464844 155.628906 C 199.773438 157.304688 198.949219 158.925781 197.988281 160.4375 C 197.910156 160.570312 197.828125 160.679688 197.75 160.8125 C 197.5625 161.101562 197.375 161.367188 197.164062 161.660156 C 197.082031 161.792969 196.976562 161.925781 196.871094 162.058594 C 196.683594 162.324219 196.496094 162.589844 196.285156 162.832031 C 196.097656 163.070312 195.910156 163.308594 195.699219 163.546875 L 195.671875 163.574219 C 195.460938 163.8125 195.246094 164.078125 195.03125 164.316406 C 194.179688 165.300781 193.25 166.203125 192.261719 167.054688 C 192.023438 167.265625 191.785156 167.480469 191.515625 167.691406 C 189.492188 169.339844 187.28125 170.722656 184.9375 171.8125 L 184.914062 171.835938 L 184.832031 171.863281 C 183.019531 172.6875 181.105469 173.351562 179.160156 173.804688 L 179.105469 173.855469 L 178.917969 173.855469 C 177.589844 174.148438 176.203125 174.363281 174.84375 174.496094 L 174.257812 174.546875 C 174.125 174.546875 173.964844 174.574219 173.832031 174.574219 L 173.753906 174.574219 C 173.539062 174.601562 173.273438 174.601562 173.035156 174.601562 C 172.902344 174.628906 172.632812 174.628906 172.394531 174.628906 Z M 161.714844 171.519531 L 161.925781 171.597656 C 162.035156 171.652344 162.140625 171.679688 162.273438 171.730469 C 162.753906 171.917969 163.257812 172.078125 163.792969 172.234375 C 164.003906 172.289062 164.191406 172.367188 164.40625 172.421875 C 164.804688 172.527344 165.230469 172.632812 165.65625 172.742188 C 165.789062 172.765625 165.921875 172.792969 166.054688 172.820312 C 166.269531 172.875 166.480469 172.925781 166.722656 172.953125 C 167.121094 173.035156 167.519531 173.113281 167.972656 173.167969 L 168.054688 173.167969 C 168.265625 173.191406 168.453125 173.21875 168.640625 173.246094 C 168.824219 173.273438 168.984375 173.300781 169.144531 173.300781 C 169.304688 173.324219 169.410156 173.324219 169.542969 173.351562 C 169.625 173.351562 169.652344 173.351562 169.679688 173.351562 C 169.863281 173.378906 170.023438 173.378906 170.183594 173.40625 C 170.421875 173.433594 170.691406 173.433594 170.929688 173.457031 C 171.167969 173.484375 171.410156 173.484375 171.648438 173.484375 C 172.15625 173.511719 172.6875 173.511719 173.195312 173.484375 C 173.433594 173.484375 173.671875 173.457031 173.914062 173.457031 L 173.992188 173.457031 C 174.097656 173.457031 174.230469 173.433594 174.367188 173.433594 L 174.953125 173.378906 C 176.28125 173.273438 177.640625 173.058594 178.972656 172.742188 L 179.53125 172.609375 C 181.238281 172.183594 182.914062 171.597656 184.511719 170.882812 L 184.539062 170.855469 L 184.621094 170.828125 C 186.910156 169.792969 189.066406 168.4375 191.039062 166.84375 C 191.277344 166.65625 191.515625 166.445312 191.757812 166.230469 C 192.6875 165.40625 193.59375 164.53125 194.421875 163.574219 C 194.632812 163.335938 194.820312 163.097656 195.03125 162.855469 C 195.058594 162.832031 195.058594 162.832031 195.085938 162.804688 C 195.273438 162.589844 195.460938 162.351562 195.644531 162.113281 C 195.832031 161.875 196.019531 161.609375 196.203125 161.367188 C 196.3125 161.234375 196.390625 161.101562 196.472656 160.996094 C 196.65625 160.730469 196.84375 160.4375 197.03125 160.171875 C 197.109375 160.066406 197.191406 159.933594 197.269531 159.800781 C 198.203125 158.339844 199 156.773438 199.667969 155.152344 C 199.71875 155.046875 199.773438 154.914062 199.800781 154.804688 L 199.828125 154.699219 C 199.933594 154.40625 200.039062 154.117188 200.148438 153.796875 C 200.199219 153.664062 200.226562 153.53125 200.28125 153.425781 L 200.304688 153.34375 C 200.414062 153.050781 200.492188 152.734375 200.597656 152.414062 C 200.625 152.363281 200.625 152.28125 200.652344 152.230469 L 200.707031 152.042969 C 200.839844 151.539062 200.945312 151.113281 201.050781 150.6875 C 201.105469 150.527344 201.132812 150.34375 201.160156 150.15625 C 201.238281 149.757812 201.320312 149.359375 201.371094 148.933594 C 201.398438 148.722656 201.453125 148.480469 201.476562 148.269531 C 201.503906 148.03125 201.53125 147.792969 201.558594 147.550781 C 201.585938 147.394531 201.585938 147.261719 201.613281 147.128906 C 201.664062 146.570312 201.71875 146.011719 201.71875 145.480469 L 201.746094 144.734375 C 201.746094 144.550781 201.746094 144.390625 201.746094 144.203125 C 201.746094 143.9375 201.746094 143.671875 201.71875 143.40625 C 201.71875 143.273438 201.71875 143.140625 201.71875 143.035156 C 201.71875 142.847656 201.691406 142.664062 201.691406 142.503906 L 201.691406 142.449219 C 201.691406 142.398438 201.691406 142.34375 201.691406 142.292969 L 201.691406 142.238281 C 201.691406 142.027344 201.664062 141.8125 201.636719 141.601562 L 201.636719 141.546875 C 201.636719 141.519531 201.636719 141.46875 201.636719 141.441406 C 201.613281 141.148438 201.585938 140.910156 201.558594 140.644531 C 201.503906 140.113281 201.425781 139.554688 201.320312 138.96875 C 201.292969 138.8125 201.265625 138.679688 201.238281 138.546875 C 201.210938 138.359375 201.183594 138.226562 201.132812 138.066406 C 201.105469 137.988281 201.105469 137.933594 201.105469 137.878906 C 201.050781 137.613281 200.972656 137.347656 200.917969 137.109375 C 200.867188 136.871094 200.785156 136.632812 200.734375 136.394531 L 200.734375 136.367188 C 200.734375 136.3125 200.707031 136.261719 200.679688 136.207031 C 200.597656 135.941406 200.519531 135.703125 200.441406 135.464844 C 200.359375 135.171875 200.253906 134.90625 200.171875 134.640625 C 200.09375 134.375 199.988281 134.132812 199.90625 133.894531 L 199.855469 133.761719 C 199.773438 133.550781 199.667969 133.3125 199.585938 133.097656 L 199.535156 132.992188 C 199.425781 132.753906 199.320312 132.515625 199.242188 132.273438 L 199.214844 132.246094 L 199.1875 132.167969 C 199.082031 131.929688 198.949219 131.691406 198.839844 131.449219 C 198.707031 131.210938 198.601562 130.945312 198.441406 130.679688 C 198.308594 130.414062 198.175781 130.175781 198.042969 129.9375 C 197.910156 129.695312 197.75 129.457031 197.617188 129.191406 C 197.324219 128.714844 197.03125 128.261719 196.683594 127.757812 C 194.738281 124.941406 192.371094 122.496094 189.574219 120.503906 L 189.332031 120.34375 L 189.332031 119.839844 L 189.414062 119.761719 C 189.574219 119.253906 189.652344 118.75 189.652344 118.246094 C 189.652344 115.507812 187.414062 113.277344 184.671875 113.277344 C 182.941406 113.277344 181.316406 114.207031 180.410156 115.667969 L 180.25 115.933594 L 179.824219 115.933594 L 179.746094 115.90625 C 179.503906 115.855469 179.238281 115.773438 178.972656 115.722656 L 178.894531 115.695312 C 178.625 115.640625 178.359375 115.589844 178.09375 115.535156 L 178.066406 115.535156 C 178.015625 115.535156 177.960938 115.507812 177.90625 115.507812 C 177.613281 115.457031 177.347656 115.402344 177.082031 115.375 C 176.789062 115.324219 176.523438 115.296875 176.257812 115.242188 C 175.964844 115.214844 175.671875 115.164062 175.378906 115.136719 C 175.191406 115.109375 175.003906 115.109375 174.816406 115.082031 L 174.710938 115.082031 C 174.207031 115.058594 173.726562 115.03125 173.21875 115.003906 C 172.632812 114.976562 172.074219 114.976562 171.488281 115.003906 C 171.4375 115.003906 171.382812 115.003906 171.355469 115.003906 L 170.851562 115.03125 C 170.796875 115.03125 170.742188 115.03125 170.691406 115.03125 C 170.398438 115.058594 170.105469 115.082031 169.785156 115.109375 C 169.542969 115.136719 169.332031 115.164062 169.09375 115.191406 L 169.039062 115.191406 C 168.878906 115.214844 168.71875 115.214844 168.53125 115.242188 C 168.347656 115.269531 168.160156 115.296875 167.972656 115.324219 C 167.785156 115.347656 167.601562 115.375 167.414062 115.402344 C 167.226562 115.429688 167.042969 115.457031 166.855469 115.507812 C 166.667969 115.535156 166.480469 115.589844 166.320312 115.613281 C 166.027344 115.667969 165.761719 115.746094 165.46875 115.800781 C 165.335938 115.828125 165.203125 115.855469 165.070312 115.90625 C 164.9375 115.933594 164.804688 115.960938 164.699219 116.011719 C 164.5625 116.039062 164.429688 116.09375 164.296875 116.121094 C 164.191406 116.144531 164.113281 116.171875 164.03125 116.199219 L 163.976562 116.226562 C 163.792969 116.277344 163.632812 116.332031 163.445312 116.386719 L 162.964844 116.546875 L 162.753906 116.09375 C 162.753906 116.066406 162.726562 116.039062 162.726562 116.011719 L 162.699219 115.960938 C 161.792969 113.703125 160.460938 111.894531 158.730469 110.59375 C 158.492188 110.40625 158.144531 110.460938 157.960938 110.699219 C 157.773438 110.9375 157.824219 111.285156 158.066406 111.46875 C 159.609375 112.664062 160.835938 114.285156 161.660156 116.304688 L 162.140625 116.8125 L 161.394531 117.101562 C 161.023438 117.261719 160.621094 117.421875 160.195312 117.609375 C 160.195312 117.609375 160.144531 117.632812 160.117188 117.632812 C 159.636719 117.847656 159.132812 118.113281 158.597656 118.40625 L 158.546875 118.429688 C 158.492188 118.457031 158.464844 118.484375 158.410156 118.484375 C 158.253906 118.589844 158.066406 118.671875 157.90625 118.777344 C 157.71875 118.882812 157.53125 118.988281 157.347656 119.097656 C 157.160156 119.203125 156.972656 119.308594 156.8125 119.441406 L 156.226562 119.8125 L 155.988281 119.175781 C 155.960938 119.097656 155.933594 119.070312 155.933594 119.015625 C 155.03125 116.652344 153.617188 114.710938 151.859375 113.355469 C 151.753906 113.277344 151.59375 113.222656 151.460938 113.25 C 151.328125 113.277344 151.195312 113.328125 151.085938 113.460938 C 150.902344 113.703125 150.953125 114.046875 151.195312 114.234375 C 152.980469 115.589844 154.335938 117.609375 155.136719 120.050781 L 155.324219 120.449219 L 154.949219 120.714844 C 154.738281 120.875 154.523438 121.035156 154.308594 121.195312 C 154.257812 121.246094 154.203125 121.273438 154.175781 121.300781 C 153.9375 121.488281 153.722656 121.671875 153.511719 121.832031 C 153.324219 121.992188 153.164062 122.125 152.980469 122.285156 C 152.792969 122.445312 152.632812 122.601562 152.445312 122.761719 L 152.367188 122.84375 C 152.234375 122.976562 152.101562 123.082031 151.964844 123.214844 C 151.699219 123.480469 151.433594 123.746094 151.195312 123.984375 C 151.007812 124.171875 150.820312 124.355469 150.660156 124.570312 L 150.636719 124.597656 C 146.613281 129.03125 144.082031 134.480469 143.3125 140.378906 C 143.152344 141.546875 143.070312 142.714844 143.070312 143.886719 L 143.070312 144.417969 L 142.589844 144.417969 C 140.488281 145.054688 139.074219 146.941406 139.074219 149.171875 C 139.074219 151.910156 141.3125 154.140625 144.054688 154.140625 C 144.164062 154.140625 144.296875 154.140625 144.402344 154.113281 L 144.800781 154.113281 L 144.933594 154.460938 C 145.441406 155.816406 146.082031 157.144531 146.800781 158.445312 C 147.253906 159.242188 147.730469 160.015625 148.238281 160.757812 C 148.53125 161.183594 148.878906 161.632812 149.195312 162.085938 L 149.542969 162.511719 C 149.648438 162.644531 149.757812 162.75 149.835938 162.882812 C 149.863281 162.910156 149.890625 162.9375 149.890625 162.964844 C 149.996094 163.097656 150.101562 163.230469 150.207031 163.335938 C 150.316406 163.46875 150.449219 163.601562 150.554688 163.734375 C 150.792969 164 151.0625 164.265625 151.300781 164.53125 C 151.433594 164.664062 151.566406 164.796875 151.671875 164.902344 C 151.941406 165.140625 152.207031 165.40625 152.472656 165.648438 C 152.578125 165.753906 152.660156 165.832031 152.765625 165.914062 C 153.351562 166.445312 153.964844 166.949219 154.601562 167.425781 C 154.738281 167.53125 154.871094 167.613281 154.976562 167.71875 C 155.082031 167.800781 155.1875 167.878906 155.269531 167.933594 L 155.429688 168.039062 C 155.960938 168.410156 156.519531 168.78125 157.105469 169.128906 C 157.265625 169.234375 157.425781 169.3125 157.558594 169.394531 C 158.464844 169.925781 159.398438 170.402344 160.328125 170.800781 C 160.488281 170.882812 160.675781 170.960938 160.835938 171.015625 C 161.046875 171.09375 161.261719 171.199219 161.476562 171.28125 C 161.660156 171.492188 161.6875 171.519531 161.714844 171.519531 Z M 200.09375 131.929688 Z M 172.394531 172.449219 C 156.867188 172.449219 144.214844 159.855469 144.214844 144.335938 C 144.214844 135.730469 148.105469 127.730469 154.871094 122.335938 L 155.617188 121.753906 L 155.773438 122.683594 C 156.042969 124.277344 156.066406 125.976562 155.910156 127.730469 C 155.882812 128.023438 156.09375 128.289062 156.414062 128.34375 C 156.441406 128.34375 156.441406 128.34375 156.46875 128.34375 C 156.734375 128.34375 156.972656 128.128906 157 127.863281 C 157.214844 125.632812 157.105469 123.507812 156.652344 121.511719 L 156.574219 121.140625 L 156.894531 120.929688 C 158.386719 119.945312 160.011719 119.097656 161.660156 118.40625 L 162.246094 118.164062 L 162.40625 118.804688 C 162.859375 120.742188 162.992188 122.84375 162.753906 124.996094 C 162.726562 125.128906 162.78125 125.285156 162.886719 125.394531 C 162.964844 125.5 163.097656 125.578125 163.257812 125.578125 L 163.3125 125.578125 C 163.605469 125.578125 163.84375 125.367188 163.871094 125.074219 C 164.113281 122.710938 163.953125 120.398438 163.417969 118.273438 L 163.285156 117.765625 L 163.765625 117.609375 C 166.5625 116.703125 169.4375 116.253906 172.394531 116.253906 C 187.921875 116.253906 200.574219 128.847656 200.574219 144.363281 C 200.546875 159.828125 187.921875 172.449219 172.394531 172.449219 Z M 154.816406 123.824219 C 148.769531 128.980469 145.308594 136.417969 145.308594 144.335938 C 145.308594 159.214844 157.453125 171.332031 172.367188 171.332031 C 187.28125 171.332031 199.425781 159.214844 199.425781 144.335938 C 199.425781 129.457031 187.28125 117.34375 172.367188 117.34375 C 169.703125 117.34375 167.09375 117.742188 164.5625 118.484375 C 165.042969 120.609375 165.148438 122.84375 164.910156 125.152344 C 164.832031 126.003906 164.113281 126.640625 163.285156 126.640625 C 163.234375 126.640625 163.152344 126.640625 163.097656 126.640625 C 162.671875 126.589844 162.273438 126.375 162.007812 126.058594 C 161.742188 125.710938 161.609375 125.285156 161.632812 124.863281 C 161.820312 123.054688 161.742188 121.300781 161.449219 119.652344 C 160.167969 120.210938 158.945312 120.875 157.773438 121.621094 C 158.171875 123.613281 158.277344 125.738281 158.039062 127.96875 C 157.960938 128.875 157.132812 129.539062 156.226562 129.429688 C 155.324219 129.351562 154.65625 128.527344 154.761719 127.625 C 154.921875 126.324219 154.921875 125.046875 154.816406 123.824219 Z M 144.507812 153.210938 L 143.710938 153.210938 C 141.738281 153 140.222656 151.351562 140.222656 149.359375 C 140.222656 147.898438 141.019531 146.570312 142.324219 145.90625 L 143.097656 145.1875 L 143.175781 146.304688 C 143.3125 148.402344 143.683594 150.476562 144.269531 152.496094 Z M 142.164062 147.339844 C 141.632812 147.84375 141.3125 148.5625 141.3125 149.359375 C 141.3125 150.5 141.980469 151.484375 142.964844 151.910156 C 142.589844 150.421875 142.324219 148.882812 142.164062 147.339844 Z M 188.242188 119.8125 L 187.550781 119.386719 C 187.308594 119.230469 187.042969 119.097656 186.804688 118.9375 C 186.617188 118.828125 186.402344 118.722656 186.191406 118.617188 C 185.976562 118.484375 185.738281 118.378906 185.523438 118.273438 C 185.5 118.273438 185.472656 118.246094 185.445312 118.21875 C 184.300781 117.632812 183.074219 117.128906 181.875 116.730469 L 181.078125 116.464844 L 181.664062 115.828125 C 182.410156 115.003906 183.449219 114.527344 184.566406 114.527344 C 186.695312 114.527344 188.453125 116.253906 188.453125 118.40625 C 188.453125 118.589844 188.429688 118.804688 188.402344 119.015625 Z M 183.128906 116.011719 C 184.085938 116.386719 185.046875 116.785156 185.949219 117.261719 L 185.976562 117.289062 C 186.242188 117.421875 186.484375 117.527344 186.695312 117.660156 C 186.882812 117.765625 187.097656 117.875 187.28125 117.980469 C 187.070312 116.652344 185.925781 115.613281 184.539062 115.613281 C 184.058594 115.613281 183.554688 115.746094 183.128906 116.011719 Z M 183.128906 116.011719 " fill-opacity="1" fill-rule="nonzero"/></svg>